<svg xmlns="http://www.w3.org/2000/svg" width="391" height="370" viewBox="0 0 391 370">
  <g transform="translate(13 24)">
    <path d="M118.29,321.77 C114.9,321.77 111.5,321.64 108.11,321.77 C103.04,322.01 98.06,321.21 93.06,320.7 C80.3261604,319.392134 67.6853744,317.298138 55.21,314.43 C44.4616422,311.868354 34.1200004,307.829965 24.48,302.43 C16.05,297.84 10.35,290.9 5.92,282.64 C4.28975641,279.517189 3.15295199,276.160748 2.55,272.69 C1.64,267.69 0.82,262.75 0.24,257.75 C-0.0600270354,255.011527 -0.0600270354,252.248473 0.24,249.51 C0.71,244.87 3.3,241.31 6.86,238.51 C12.4918237,234.131424 18.75678,230.634782 25.44,228.14 C39.7265235,222.803802 54.5195848,218.937167 69.59,216.6 C77.96,215.23 86.33,213.92 94.73,212.8 C98.73,212.26 102.86,212.13 106.93,211.95 C113.76,211.63 120.59,211.2 127.42,211.24 C133.96,211.24 140.53,211.6 147.04,212.24 C157.94,213.3 168.84,214.47 179.68,216.01 C189.388333,217.374494 198.995919,219.378858 208.44,222.01 C210.23,222.51 210.44,222.45 210.94,220.7 C212.38,215.98 215.51,212.31 218.55,208.6 C224.428353,201.467164 230.95638,194.895617 238.05,188.97 C245.11,183.02 252.19,177.08 259.42,171.33 C264.3,167.46 269.49,163.97 274.48,160.23 C286.29,151.38 299.02,143.99 311.83,136.74 C320.857718,131.50041 330.150103,126.730719 339.67,122.45 C343.41,120.82 347.24,119.45 351.04,117.92 C353.307837,117.060904 355.80787,117.039628 358.09,117.86 C359.46,118.31 360.84,118.72 362.17,119.26 C363.5,119.8 364.82,120.6 364.97,122.26 C365.146993,123.885679 364.336228,125.45998 362.91,126.26 C356.86,129.94 350.75,133.51 344.77,137.26 C336.69,142.36 328.58,147.43 320.72,152.85 C311.07,159.5 301.5,166.28 292.2,173.4 C283.47,180.07 275.04,187.14 266.66,194.25 C261.66,198.46 257.02,203.02 252.33,207.55 C248.49,211.27 244.69,215.05 241.13,219.05 C239.07444,221.50202 237.271949,224.155502 235.75,226.97 C235.029502,228.439162 234.588666,230.029563 234.45,231.66 C234.49474,232.399321 234.859961,233.082283 235.45,233.53 C237.913522,235.570117 240.128719,237.892717 242.05,240.45 C244.56,243.89 245.05,247.79 245.05,251.83 C245.05,253.83 245.05,255.83 244.94,257.83 C244.32,267.75 240.67,276.61 235.43,284.93 C231.855798,290.676826 226.96414,295.489642 221.16,298.97 C214.10346,303.376813 206.726065,307.247689 199.09,310.55 C192.018467,313.578792 184.598453,315.71847 177,316.92 C166.906667,318.4 156.803333,319.753333 146.69,320.98 C143.111853,321.348501 139.517072,321.532079 135.92,321.53 C130.04,321.61 124.17,321.53 118.29,321.53 L118.29,321.77 Z M3.35,259.97 C3.42,260.77 3.44,261.31 3.52,261.83 C3.94,264.44 4.52,267.02 4.78,269.64 C5.51,277.1 9.13,283.31 13.31,289.21 C16.6352833,293.739711 20.9385281,297.461898 25.9,300.1 C34.5005433,304.967683 43.711696,308.666941 53.29,311.1 C65.2248322,313.982053 77.3238069,316.136025 89.52,317.55 C97.2074476,318.597714 104.96216,319.072356 112.72,318.97 C121.31,318.75 129.91,318.81 138.5,318.67 C141.841305,318.655563 145.179431,318.461952 148.5,318.09 C158.02,316.87 167.5,315.53 177.01,314.09 C183.855377,313.014858 190.544521,311.110869 196.93,308.42 C204.34061,305.344926 211.502011,301.700703 218.35,297.52 C224.2,293.98 229.21,289.74 232.9,283.9 C237.67,276.36 241.2,268.4 242.1,259.43 C242.17,258.79 242.1,258.14 242.1,257.21 C241.783683,257.457578 241.489263,257.731924 241.22,258.03 C239.828297,259.838824 238.095657,261.357432 236.12,262.5 C229.21,267.03 221.4,269.23 213.5,271.2 C212.915258,271.302725 212.313183,271.22964 211.77,270.99 C208.72,269.68 205.7,268.31 202.67,266.99 C190.67,261.62 178.37,257.13 165.44,254.5 C154.122037,252.141143 142.637103,250.670001 131.09,250.1 C123.257413,249.784631 115.412208,250.055386 107.62,250.91 C99.27,251.79 90.97,253.12 82.62,254.32 C75.91,255.32 69.48,257.42 62.94,259.11 C50.83,262.25 39.94,267.87 29.82,274.99 C29.1775865,275.422566 28.3838485,275.567541 27.63,275.39 C18.79,272.15 10.63,267.84 4.18,260.72 C3.91825753,260.453964 3.64111353,260.203532 3.35,259.97 Z M216.6,215.77 C217.092963,215.797022 217.587037,215.797022 218.08,215.77 C219.964022,215.523617 221.717903,214.674739 223.08,213.35 C224.98,211.53 226.79,209.61 228.68,207.78 C233.07,203.52 237.39,199.17 241.91,195.06 C248.39,189.18 254.85,183.25 261.66,177.76 C268.25,172.44 275.25,167.63 282.08,162.61 C283.37,161.66 284.34,161.61 284.85,162.25 C285.36,162.89 284.98,163.84 283.6,164.84 C277.85,168.97 271.92,172.97 266.35,177.44 C259.51,182.96 252.85,188.73 246.35,194.68 C242.288144,198.532067 238.448613,202.611985 234.85,206.9 C232.35,209.79 230.25,213.04 228.04,216.16 C226.990486,217.53756 226.775787,219.377838 227.48,220.96 C227.651757,221.256025 227.852762,221.534082 228.08,221.79 C228.373485,221.615969 228.645371,221.407859 228.89,221.17 C233.011087,215.712071 237.569462,210.598531 242.52,205.88 C247.67,201.15 252.85,196.45 258.18,191.93 C268.1,183.5 278.82,176.13 289.6,168.87 C296.8,164.03 304.04,159.26 311.21,154.37 C322.59,146.63 333.85,138.72 345.29,131.09 C350.17,127.85 355.13,124.63 360.63,122.45 C360.79,122.39 360.9,122.21 361.21,121.92 C358.3,120.8 355.63,119.35 352.56,120.34 C349.98,121.18 347.43,122.14 344.92,123.18 C335.422294,127.21971 326.16082,131.79369 317.18,136.88 C306.02,143.06 294.92,149.36 284.38,156.56 C277.08,161.56 269.88,166.69 262.92,172.12 C254.47,178.71 246.26,185.6 238.07,192.51 C230.384042,198.976585 223.441343,206.278158 217.37,214.28 C217.083034,214.760414 216.825882,215.258019 216.6,215.77 Z M240.35,254.12 C240.54181,253.932283 240.7128,253.724413 240.86,253.5 C242.34,250.09 242.61,246.72 240.67,243.37 C238.604938,239.928765 235.813224,236.98006 232.49,234.73 C226.84,230.73 220.38,228.56 213.93,226.45 C204.169422,223.336946 194.173691,221.01609 184.04,219.51 C173.26,217.83 162.42,216.51 151.57,215.33 C144.615085,214.567262 137.626327,214.15341 130.63,214.09 C121.92,214.03 113.21,214.49 104.51,214.78 C101.75,214.87 98.99,215.02 96.26,215.36 C91.82,215.91 87.4,216.68 82.97,217.27 C69.9384802,218.910568 57.0348552,221.44318 44.35,224.85 C35.43,227.32 26.58,229.96 18.35,234.37 C13.94,236.74 9.58,239.18 6.08,242.87 C2.97160378,246.084729 2.06449446,250.836254 3.77,254.97 C4.25,256.06 4.53,256.11 5.24,255.32 C7.49,252.78 9.64,250.15 12.06,247.78 C16.45,243.48 21.16,239.51 26.99,237.33 C34.3233333,234.57 41.7166667,231.983333 49.17,229.57 C53.4849821,228.188032 57.8883233,227.09889 62.35,226.31 C70.35,224.876667 78.4066667,223.636667 86.52,222.59 C95.20121,221.410265 103.949195,220.788987 112.71,220.73 C115.14,220.73 117.58,220.6 120.01,220.47 C129.009075,220.004555 138.029206,220.141527 147.01,220.88 C155.9,221.57 164.76,222.62 173.6,223.79 C180.05,224.65 186.46,225.87 192.86,227.1 C201.722898,228.709652 210.388656,231.26077 218.71,234.71 C223.09,236.57 227.39,238.54 231.11,241.66 C234.24,244.28 237.11,247.02 238.9,250.77 C239.35,251.81 239.77,252.87 240.35,254.12 Z M32.53,264.34 C33.61,263.85 34.53,263.48 35.34,263.05 C39.7,260.88 43.93,258.38 48.44,256.59 C54.26,254.27 60.3,252.51 66.26,250.53 C67.75,250.03 68.55,249.28 68.26,248.41 C67.76,247.08 66.61,247.36 65.6,247.53 C63.31,247.92 61.04,248.38 58.76,248.83 C57.98,248.98 57.31,248.96 57.06,248.02 C56.81,247.08 57.53,246.93 58.06,246.7 C60.37,245.79 62.69,244.92 64.99,244 C65.9,243.64 66.71,243.08 66.34,241.95 C65.97,240.82 65.02,240.95 64.13,241.15 C59.01,242.59 53.78,243.71 48.84,245.6 C43.9,247.49 39.49,250.1 34.84,252.42 C34.07,252.81 33.54,253.42 34,254.42 C34.46,255.42 35.19,255.32 36.06,255.03 C36.605688,254.903932 37.1609507,254.823653 37.72,254.79 C37.72,255.38 37.78,255.96 37.8,256.55 C37.8,256.67 37.74,256.8 37.8,256.9 C38.23,258.18 37.43,258.71 36.46,259.17 C35.96,259.41 35.46,259.71 34.98,259.96 C33.9157021,260.412899 32.8833348,260.937435 31.89,261.53 C31.4469323,261.938112 31.2210823,262.530506 31.28,263.13 C31.35,263.56 32.06,263.9 32.53,264.34 Z M162.73,238.2 L162.73,238.28 C162.53,238.28 162.33,238.28 162.13,238.28 C161.25,238.28 160.51,238.59 160.48,239.62 C160.45,240.65 161.11,240.93 161.92,241.08 C162.28,241.14 162.64,241.17 162.99,241.22 C165.48,241.61 167.99,241.99 170.44,242.43 C170.75,242.48 171.25,242.95 171.21,243.11 C171.082851,243.581563 170.830626,244.01 170.48,244.35 C170.29,244.52 169.87,244.47 169.55,244.49 C168.7,244.55 167.88,244.7 167.84,245.76 C167.8,246.82 168.55,247.18 169.45,247.35 C170.713033,247.525288 171.965059,247.772355 173.2,248.09 C177.94,249.53 182.64,251.09 187.36,252.55 C188.21,252.82 189.11,253.14 189.76,252.22 C190.41,251.3 189.76,250.82 189.31,250.1 C188.79,249.2 188.22,248.16 189.2,247.1 C189.455595,246.827715 189.569852,246.451953 189.509093,246.083474 C189.448333,245.714995 189.219483,245.39581 188.89,245.22 C188.392325,244.88808 187.858991,244.613027 187.3,244.4 C181.321463,242.024166 175.115943,240.265041 168.78,239.15 C166.77,238.72 164.74,238.51 162.73,238.2 Z M64.64,234.2 C62.54,234.72 60.72,235.2 58.9,235.63 C50.7,237.74 43.19,241.46 35.9,245.71 C32.39,247.76 29.06,250.12 25.7,252.43 C24.7,253.13 24.54,254.16 25.16,254.79 C25.98,255.63 26.75,255.19 27.5,254.64 C28.92,253.64 30.3,252.49 31.79,251.57 C41.79,245.36 52.05,239.81 63.71,237.38 C64.2618479,237.301757 64.7792973,237.065605 65.2,236.7 C65.593485,236.284396 65.7900675,235.720132 65.74,235.15 C65.65,234.68 64.97,234.41 64.64,234.15 L64.64,234.2 Z M157.64,232.28 C156.83,232.33 156.18,232.28 155.55,232.4 C154.55,232.53 153.65,232.86 153.76,234.06 C153.87,235.26 154.85,235.41 155.82,235.39 C161.377376,235.35725 166.921249,235.940816 172.35,237.13 C178.593428,238.348253 184.688255,240.232352 190.53,242.75 C191.015399,243.023578 191.562817,243.168179 192.12,243.17 C192.681148,243.106799 193.184167,242.794708 193.49,242.32 C193.65,241.92 193.32,241.23 193.03,240.78 C192.84,240.49 192.36,240.38 192.03,240.22 C186.44141,237.836518 180.643056,235.9785 174.71,234.67 C169.080565,233.47812 163.377913,232.662978 157.64,232.23 L157.64,232.28 Z M215.78,237.97 C215.811205,237.381872 215.594006,236.80767 215.181373,236.387431 C214.768739,235.967191 214.1986,235.739541 213.61,235.76 C212.406019,235.826274 211.483726,236.856019 211.55,238.06 C211.616274,239.263981 212.646019,240.186274 213.85,240.12 C214.39522,240.102465 214.909619,239.862987 215.274019,239.45705 C215.638419,239.051112 215.821195,238.513944 215.78,237.97 Z M210.04,245.58 C208.867311,245.617665 207.934777,246.576716 207.93,247.75 C207.910304,248.3446 208.137866,248.920782 208.558542,249.341458 C208.979218,249.762134 209.5554,249.989696 210.15,249.97 C211.278352,249.916272 212.162037,248.979567 212.15,247.85 C212.119281,246.673334 211.212271,245.706144 210.04,245.6 L210.04,245.58 Z"/>
    <path d="M170.16 94.79C169.285607 96.4681952 168.51418 98.1980609 167.85 99.97 166.96 102.75 166.26 105.59 165.64 108.44 163.828658 116.988023 159.556592 124.819564 153.35 130.97 147.76 136.63 141.47 141.42 135.25 146.32 131.44 149.32 127.87 152.59 125.49 156.93 123.885743 159.66034 123.14009 162.8102 123.35 165.97 123.42 166.8 123.29 167.58 122.35 167.75 121.41 167.92 120.84 167.16 120.81 166.32 120.743242 164.810673 120.806811 163.2984 121 161.8 121.680137 157.954408 123.458284 154.387696 126.12 151.53 127.39 150.04 128.9 148.77 130.2 147.31 130.767457 146.788628 131.123376 146.076789 131.2 145.31 130.44 137.56 132.35 130.31 135.14 123.2 135.86 121.35 136.59 119.51 137.43 117.36 137.127086 117.468233 136.838334 117.612609 136.57 117.79 131.19 123.42 125.41 128.7 120.73 134.97 118.315857 138.324508 116.555163 142.103723 115.54 146.11 115.11 147.68 114.6 148.35 113.77 148.05 112.45 147.57 112.71 146.45 112.97 145.51 114.311464 140.000399 117.002234 134.910962 120.8 130.7 125.25 125.89 129.8 121.21 134.31 116.41 140.572267 109.910688 145.498632 102.245944 148.81 93.85 151.337664 87.0542034 151.820864 79.6671591 150.2 72.6 149.46 69.08 148.55 65.6 147.58 62.13 146.077973 57.100245 145.313349 51.8792388 145.31 46.63 145.29258 46.1708162 145.245818 45.7132161 145.17 45.26L144.55 44.79C144.480901 45.1354669 144.370089 45.47126 144.22 45.79 141.567726 50.2109695 140.325886 55.3353041 140.66 60.48 141.01 67.06 141.51 73.67 140.47 80.23 139.331913 86.9459593 136.150742 93.1476714 131.36 97.99 127.487943 101.954231 123.118175 105.399625 118.36 108.24 107.16465 115.002343 98.0747899 124.750136 92.11 136.39 89.0277563 142.650077 84.8560514 148.311676 79.79 153.11 79.1399647 153.759882 78.4375989 154.355221 77.69 154.89 77.2811448 155.142798 76.7768049 155.187299 76.33 155.01 76.0171268 154.590958 75.8710156 154.070659 75.92 153.55 76.0034844 153.146903 76.2355085 152.789943 76.57 152.55 81.96 147.97 85.86 142.21 89.35 136.08 92.08 131.23 94.76 126.36 98.35 122.08 103.775781 115.757455 110.135852 110.301148 117.21 105.9 122.29 102.67 127.21 99.2 131 94.47 135.603048 89.0449572 138.185987 82.1936322 138.31 75.08 138.37 69.8133333 138.283333 64.5433333 138.05 59.27 137.77 52.63 139.98 46.89 143.83 41.63 145.67 39.12 147.42 36.54 149.16 33.96 151.27 30.82 154.16 28.49 157.05 26.14 157.42 25.85 158.2 26.06 158.79 26.04 158.79 26.66 158.96 27.47 158.64 27.85 157.793105 28.8083438 156.855396 29.6824232 155.84 30.46 150.781648 34.566899 147.843011 40.7343623 147.84 47.25 147.826418 52.008561 148.589791 56.7374224 150.1 61.25 151.790725 66.5075864 152.930185 71.9267245 153.5 77.42 154.183698 84.0774273 153.097059 90.797341 150.35 96.9 149.42 99.02 148.29 101.05 147.35 103.15 143.16 111.99 138.35 120.58 135.64 130.03 134.58 133.69 134.23 137.55 133.56 141.33 133.525167 141.48473 133.525167 141.64527 133.56 141.8 133.73 142.39 133.92 142.97 134.1 143.56 134.594235 143.340011 135.069222 143.079103 135.52 142.78 141.110675 138.701718 146.400973 134.226854 151.35 129.39 157.281556 123.532495 161.357635 116.058525 163.07 107.9 163.66 105.08 164.42 102.3 165.21 99.53 166.56 94.76 169.76 91.13 172.93 87.53 173.459969 87.094305 174.16935 86.9449616 174.83 87.13 175.7 87.46 175.53 88.39 175.23 89.13 173.785642 92.5275998 173.10298 96.2003224 173.23 99.89 173.414399 102.278572 173.748388 104.653231 174.23 107 174.61 109.25 175.11 111.48 175.51 113.72 176.38 118.72 175.33 123.42 173.38 127.99 170.903572 133.370358 167.820224 138.449998 164.19 143.13 159.594517 149.255383 156.362228 156.292773 154.71 163.77 153.699962 168.696038 154.077307 173.805769 155.8 178.53 156.3 180 156.74 181.53 157.19 182.99 157.394637 183.427334 157.49069 183.9076 157.47 184.39 157.33 184.92 156.95 185.68 156.56 185.76 155.967614 185.764232 155.415239 185.46156 155.1 184.96 150.55 174.11 150.34 163.31 155.56 152.57 158.287544 147.226934 161.469251 142.128172 165.07 137.33 168.414841 132.807672 170.933622 127.729486 172.51 122.33 173.233048 119.901994 173.407251 117.343607 173.02 114.84 172.626667 112.52 172.183333 110.186667 171.69 107.84 170.765131 104.026974 170.464565 100.089224 170.8 96.18 170.82164 95.8470179 170.82164 95.5129821 170.8 95.18 170.776161 95.0679519 170.735715 94.9600945 170.68 94.86L170.16 94.79zM216.83 57.54C216.521858 57.6666379 216.232505 57.8348666 215.97 58.04 207.8 66.04 200.64 74.71 196.81 85.68 194.611791 92.0639415 194.142567 98.9159944 195.45 105.54 196.63 111.98 197.45 118.54 197.99 125.04 198.304985 129.301663 198.284924 133.581477 197.93 137.84 197.53 143.31 195.15 148.13 192.28 152.73 190.35 155.82 188.38 158.88 185.47 161.18 185.026145 161.638851 184.509097 162.020723 183.94 162.31 183.407202 162.47014 182.830624 162.382001 182.37 162.07 182.126403 161.606737 182.126403 161.053263 182.37 160.59 182.804603 160.020794 183.323981 159.521652 183.91 159.11 187.52 156.11 189.71 152 191.91 147.96 194.936221 142.363086 196.237581 135.995472 195.65 129.66 195.32 125.66 194.85 121.66 194.43 117.66 194.378259 117.32142 194.30138 116.987163 194.2 116.66L193.84 116.58C193.62 117.22 193.36 117.84 193.19 118.49 192.145977 122.942546 190.706943 127.293112 188.89 131.49 186.767759 136.285846 184.002355 140.770375 180.67 144.82 178.678379 147.419371 176.419327 149.802436 173.93 151.93 172.67 152.93 171.93 153.04 171.31 152.32 170.69 151.6 170.98 150.72 172.31 149.78 175.94 147.19 178.36 143.53 180.91 140.02 188.1 130.07 191.11 118.59 192.63 106.65 192.709363 104.731079 192.575206 102.809282 192.23 100.92 191.52 93.92 193.03 87.34 195.83 80.92 199.005246 73.8258198 203.40588 67.3467322 208.83 61.78 212.28 58.17 215.94 54.78 219.55 51.32 220.3 50.59 221.24 49.63 222.35 50.58 223.46 51.53 222.54 52.48 222.08 53.38 217.08 63.38 213.71 73.75 214.38 85.06 214.702535 89.365454 215.290317 93.6469158 216.14 97.88 217.55 105.55 219.28 113.16 220.66 120.88 221.89582 127.040537 222.585165 133.298178 222.72 139.58 222.768299 148.029541 220.865575 156.376201 217.16 163.97 214.56 169.27 211.57 174.39 208.85 179.64 207.64585 181.984757 206.574167 184.395209 205.64 186.86 204.605976 189.787707 204.446147 192.953026 205.18 195.97 205.71 198.39 206.31 200.79 206.91 203.2 207.11 204.01 207.19 204.76 206.27 205.12 205.35 205.48 204.85 204.89 204.46 204.17 204.322348 203.926091 204.221269 203.663287 204.16 203.39 203.48 199.98 202.61 196.59 202.21 193.15 201.65 188.3 203.5 183.94 205.75 179.78 207.65 176.26 209.75 172.87 211.67 169.35 216 161.24 219.32 152.78 220.05 143.51 220.427837 138.516721 220.162328 133.495586 219.26 128.57 217.63 119.44 215.75 110.35 214.16 101.21 213.032879 95.5165096 212.258074 89.7589073 211.84 83.97 211.412323 75.5761207 213.003465 67.2020471 216.48 59.55 216.724598 58.9513878 216.938214 58.3405793 217.12 57.72L216.83 57.54zM81.96 102.56C81.5 102.9 81.27 103.04 81.08 103.21 77.83 106.21 74.72 109.41 71.31 112.21 65.63 116.88 60.86 122.21 57.9 129.01 56.69 131.8 55.37 134.53 54.14 137.31 51.1231623 143.903088 47.116964 149.996691 42.26 155.38 37.17 161.2 32.33 167.2 29.03 174.28 26.0306515 180.584652 24.2591084 187.402717 23.81 194.37 23.4919665 197.392763 23.3384068 200.430574 23.35 203.47 23.54 207.28 24.19 211.08 24.64 214.88 24.7825354 215.459117 24.8530683 216.053608 24.85 216.65 24.7551126 217.087393 24.463554 217.456454 24.06 217.65 23.6059439 217.713874 23.1471767 217.570739 22.81 217.26 22.4795373 216.858923 22.2559313 216.38075 22.16 215.87 20.9124851 210.691897 20.4573119 205.35457 20.81 200.04 21.08 196.46 21.28 192.86 21.72 189.29 22.9481986 179.998575 26.5660651 171.184763 32.22 163.71 35.31 159.49 38.79 155.56 42.13 151.53 46.8752004 145.682027 50.7239953 139.160645 53.55 132.18 55.82 126.74 58.34 121.39 62.49 117.09 65.316873 114.208274 68.2908423 111.474625 71.4 108.9 75.4 105.51 79.32 102.04 81.84 97.31 81.9649024 97.0138627 82.1648003 96.7553741 82.42 96.56 82.91 96.28 83.56 95.84 83.96 95.98 84.5266017 96.226573 84.9474104 96.7212077 85.1 97.32 85.2449761 98.5892067 85.2449761 99.8707933 85.1 101.14 84.57 106.04 82.46 110.35 79.87 114.42 78.07 117.25 76.13 120 74.08 122.66 71.0833321 126.427313 68.8853296 130.765476 67.62 135.41 65.0693488 144.770133 61.1862963 153.714961 56.09 161.97 53.8211946 165.838198 52.1553894 170.029688 51.15 174.4 50.6899611 176.872697 50.3760834 179.370362 50.21 181.88 50.173231 182.914822 50.0325236 183.943327 49.79 184.95 49.63 185.43 48.86 185.71 48.36 186.08 48.03 185.6 47.36 185.08 47.41 184.65 47.47 182.81 47.72 180.99 47.91 179.16 48.5955593 172.073955 50.8795285 165.235724 54.59 159.16 59.3994448 151.304298 63.0250539 142.782768 65.35 133.87 66.5280876 129.447914 68.6386584 125.329061 71.54 121.79 75.172697 117.414517 78.2246443 112.587869 80.62 107.43 81.0909437 106.285653 81.5015083 105.11738 81.85 103.93 81.9244331 103.477154 81.9612256 103.018921 81.96 102.56z"/>
    <path d="M209.63 12.37C209.63 21.05 206.22 28.22 200.39 34.5 195.08 40.23 189.14 45.27 183.35 50.43 179.414314 53.9056062 176.123727 58.0493086 173.63 62.67 172.90811 64.2220261 172.358173 65.8483666 171.99 67.52 171.76 68.32 171.85 69.27 170.72 69.42 169.56604 69.4025235 168.562873 68.6236415 168.26 67.51 167.976148 65.8964059 167.86552 64.2571011 167.93 62.62 168.841928 52.6378584 172.832503 43.1855762 179.35 35.57 183.15 30.96 187.97 27.51 192.75 24.02 194.783788 22.6062548 196.724466 21.0630645 198.56 19.4 202.870906 15.2903033 205.355979 9.62505615 205.46 3.67 205.46 3.35 205.46 3.03 205.46 2.67 205.52 1.74 205.84 1.01 206.91.96 207.397771.949126467 207.869062 1.13672295 208.215934 1.47982467 208.562806 1.82292639 208.755542 2.29213905 208.75 2.78 208.94 4.93 209.1 7.08 209.28 9.23 209.42 10.3 209.53 11.34 209.63 12.37zM206.75 12.61L206.43 12.54C206.23 12.9 206.03 13.26 205.82 13.62 204.99 15.07 204.25 16.62 203.29 17.96 200.94 21.32 197.6 23.65 194.37 26.07 189.87 29.45 185.18 32.59 181.53 36.99 176.039317 43.5062817 172.368669 51.3581547 170.89 59.75 170.831459 60.1977771 170.798074 60.6484846 170.79 61.1L171.09 61.21C171.379791 60.865277 171.650207 60.5047215 171.9 60.13 174.835147 55.2038057 178.581153 50.8086719 182.98 47.13 188.588398 42.4531274 193.911286 37.4441369 198.92 32.13 203.716477 27.1568382 206.557136 20.6197725 206.92 13.72 206.899432 13.3453659 206.842497 12.973618 206.75 12.61zM103.89 142.12C102.82 143.73 101.64 145.29 100.69 146.97 98.08 151.56 95.69 156.24 93 160.81 90.4474282 165.308717 87.0761625 169.290473 83.06 172.55 79.06 175.75 74.9 178.79 71.33 182.41 68.55 185.21 66.49 188.73 64.28 192.05 63.692421 193.226779 63.2684952 194.47837 63.02 195.77 62.9511967 196.239135 62.8094863 196.694633 62.6 197.12 62.2969518 197.507255 61.8410651 197.744316 61.35 197.77 60.98 197.71 60.35 197.12 60.41 196.77 60.3924989 195.617447 60.5441119 194.468557 60.86 193.36 62.27 189.01 65.06 185.5 67.91 182.03 71.15 178.08 75.32 175.21 79.32 172.18 85.62 167.42 90.07 161.27 93.58 154.37 96.86 147.93 100.35 141.66 105.19 136.24 106.05 135.24 106.82 134.24 107.76 133.4 108.219916 133.013589 108.836131 132.868815 109.42 133.01 109.922719 133.409365 110.225894 134.00841 110.25 134.65 110.206904 135.446544 109.991988 136.224335 109.62 136.93 106.651554 142.930508 104.862519 149.44504 104.35 156.12 104.257053 157.676026 104.35444 159.23758 104.64 160.77 105.897498 168.07657 104.914412 175.59265 101.82 182.33 101.09 183.97 100.48 185.67 99.82 187.33 99.47 188.18 98.98 189.06 97.88 188.62 96.78 188.18 97.05 187.16 97.36 186.34 98.46 183.34 99.66 180.45 100.75 177.49 102.404823 173.369597 102.962986 168.890514 102.37 164.49 101.266148 157.386427 101.872945 150.122002 104.14 143.3 104.229354 142.971026 104.299472 142.637127 104.35 142.3L103.89 142.12zM95.91 99.67C96.02 96.96 96.02 94.24 96.27 91.53 96.7555191 85.3250574 99.490107 79.5109465 103.96 75.18 105.41 73.75 106.79 72.25 108.15 70.72 110.153266 68.3621029 111.550405 65.5506616 112.22 62.53 113.04 59.24 113.85 55.93 114.88 52.7 116.641323 47.6443219 119.538973 43.0600819 123.35 39.3 123.84 38.78 124.29 38.21 124.78 37.69 125.27 37.17 125.97 36.47 126.85 37.01 127.73 37.55 127.46 38.28 127.29 39.06 126.53 42.65 125.61 46.23 125.12 49.86 124.840072 52.2806087 124.870317 54.7270514 125.21 57.14 126.03 63.81 123.72 69.49 120.01 74.77 117.22 78.77 113.61 81.88 109.95 85.01 107.29 87.29 104.8 89.78 102.36 92.3 100.652897 94.1949563 99.4493732 96.4885288 98.86 98.97 98.7509372 99.3973225 98.6173833 99.8180174 98.46 100.23 98.16 101.01 97.59 101.64 96.75 101.29 96.26 101.09 96 100.36 95.63 99.87L95.91 99.67zM123.02 44.31L122.66 44.16C122.348737 44.463033 122.070512 44.7982435 121.83 45.16 120.47 47.6 118.83 49.93 117.83 52.52 116.47 56.22 115.63 60.11 114.59 63.93 114.00156 66.5566609 112.817808 69.013118 111.13 71.11 109.35 73.11 107.54 75.19 105.62 77.11 102.145714 80.6981011 99.8500039 85.2616103 99.04 90.19 98.9994669 90.6591261 98.9994669 91.1308739 99.04 91.6 99.231129 91.5620037 99.4161725 91.4980795 99.59 91.41 99.77 91.26 99.92 91.06 100.09 90.9 102.69 88.36 105.15 85.65 107.91 83.31 111.71 80.1 115.47 76.88 118.23 72.68 121.17 68.21 123.1 63.43 122.59 57.92 122.13793 53.8624222 122.232103 49.7625416 122.87 45.73 122.98 45.24 122.98 44.77 123.02 44.31zM189.44 170.82C188.55 171.51 187.61 172.15 186.78 172.91 184.71 174.81 182.7 176.74 181.78 179.56 181.65 179.97 180.78 180.56 180.48 180.41 179.947971 180.15328 179.574694 179.653089 179.48 179.07 179.496984 178.276435 179.702655 177.498316 180.08 176.8 181.58 173.68 184.14 171.48 186.79 169.4 188.52 168.05 190.36 166.84 192.17 165.59 192.82 165.13 193.56 164.59 194.34 165.26 195.12 165.93 194.89 166.81 194.48 167.57 192.885781 170.578964 191.73392 173.802152 191.06 177.14 190.505515 180.009322 190.454757 182.953269 190.91 185.84 191.16 187.7 191.43 189.56 191.68 191.42 191.76889 191.771128 191.76889 192.138872 191.68 192.49 191.47 192.94 191.13 193.59 190.76 193.65 190.230283 193.654395 189.735489 193.386224 189.45 192.94 189.087095 192.140083 188.844471 191.290898 188.73 190.42 187.78 184.29 187.41 178.17 189.54 172.17 189.626273 171.802427 189.67651 171.42732 189.69 171.05L189.44 170.82zM32.59 276.74C34.83 275.29 37.07 273.93 39.21 272.43 47.69 266.49 57.51 263.86 67.21 260.85 78.14 257.45 89.43 256.23 100.66 254.62 109.29334 253.41523 118.003255 252.843704 126.72 252.91 134.231733 253.017831 141.729511 253.59227 149.17 254.63 160.46 256.09 171.64 258.2 182.36 262.04 190.67 265.04 198.75 268.64 206.93 271.97 207.27472 272.135563 207.60871 272.322597 207.93 272.53 207.454124 272.735085 206.966619 272.912056 206.47 273.06 197.68 274.97 188.9 276.93 180.09 278.77 166.3 281.63 152.31 283.25 138.31 284.77 126.24209 285.956039 114.109879 286.356883 101.99 285.97 94.13 285.8 86.26 285.53 78.4 284.97 63.73 283.97 49.2 282.12 35.06 277.84 34.34 277.62 33.63 277.34 32.92 277.08 32.82 277.08 32.77 276.97 32.59 276.74zM209.35 291.9L208.22 292.16C199.922751 294.425391 191.493324 296.175399 182.98 297.4 182.268421 297.504768 181.547846 297.534931 180.83 297.49 179.71 297.4 178.97 296.93 179.03 295.6 179.03 294.6 178.41 294.13 177.2 294.36 175.08 294.77 172.98 295.29 170.86 295.7 166.98 296.44 163.08 297.14 159.18 297.85 158.25 298.02 157.27 298.13 156.95 296.9 156.74 296.06 157.48 295.4 158.81 295.13 164.89 293.94 171.01 292.92 177.04 291.51 190.825729 288.444665 204.392332 284.465885 217.65 279.6 218.55 279.26 219.42 278.84 220.31 278.5 221.2 278.16 222.12 277.77 222.76 278.83 223.21 279.59 222.67 280.45 221.4 280.97 219.59 281.73 217.77 282.44 215.93 283.12 215.21 283.39 214.77 283.7 214.93 284.59 215.12 285.7 214.33 286.33 213.47 286.67 210.94 287.67 208.38 288.58 205.83 289.52 205.277709 289.683817 204.754642 289.933539 204.28 290.26 204.634091 290.221845 204.984991 290.158349 205.33 290.07 208.99 288.943333 212.656667 287.8 216.33 286.64 216.71 286.52 217.09 286.37 217.47 286.26 218.31 286.02 219.13 286.04 219.47 287.02 219.81 288 219.17 288.45 218.41 288.76 217.41 289.17 216.41 289.52 215.41 289.9 215.093343 289.992273 214.811351 290.176786 214.6 290.43 215.26 290.24 215.92 290.03 216.6 289.85 217.41 289.64 218.17 289.72 218.51 290.6 218.85 291.48 218.3 292.07 217.51 292.34 216.424773 292.633293 215.524462 293.390871 215.05 294.41 214.77 294.98 213.9 295.35 213.23 295.65 206.8 298.52 200.01 300.23 193.23 301.79 189.14 302.73 185 303.44 180.88 304.23 180.420721 304.374539 179.932607 304.402039 179.46 304.31 178.98 304.15 178.37 303.79 178.25 303.38 178.13 302.97 178.5 302.38 178.78 301.95 179.126564 301.356995 179.554 300.815127 180.05 300.34 180.559622 299.818805 181.182362 299.421894 181.87 299.18 186.99 297.91 192.14 296.74 197.26 295.48 200.64 294.65 204 293.74 207.36 292.85 208.09 292.66 208.8 292.38 209.52 292.15L209.35 291.9zM55.46 296.42C55.78 298.79 55.07 299.47 52.92 298.9 45.43 296.9 37.92 294.9 30.45 292.9 30.19 292.82 29.83 292.78 29.69 292.6 29.33 292.13 28.84 291.6 28.87 291.08 28.87 290.75 29.67 290.38 30.17 290.18 30.5 290.04 30.94 290.18 31.39 289.98 30.48 289.64 29.57 289.29 28.65 288.98 27.7417631 288.73346 27.0614326 287.97884 26.91 287.05 26.7054851 286.519531 26.2991882 286.091661 25.78 285.86 24.09 285.06 22.34 284.36 20.62 283.61 20.3622998 283.502109 20.1146651 283.371599 19.88 283.22 19.12 282.71 18.34 282.11 18.88 281.09 19.42 280.07 20.34 280.42 21.16 280.82 27.850146 283.890857 34.8185005 286.315215 41.97 288.06 46.91 289.38 51.89 290.57 56.85 291.79 57.97 292.07 58.91 292.42 59.13 293.74 59.13 294.05 59.62 294.28 59.73 294.6 59.9 295.12 60.2 295.82 60 296.2 59.6377656 296.63694 59.0975239 296.886848 58.53 296.88 57.4972823 296.797654 56.4714996 296.643954 55.46 296.42zM45.92 294.03L45.83 294.27 47.09 294.57 47.09 294.34 45.92 294.03zM165.73 312.17C164.73 312.17 163.81 312.08 163.73 310.98 163.65 309.88 164.54 309.66 165.39 309.48 173.53 307.78 181.71 306.24 189.79 304.32 195.85 302.88 201.79 300.95 207.79 299.24 208.571843 298.94539 209.388703 298.753781 210.22 298.67 210.775572 298.74297 211.262605 299.077573 211.53 299.57 211.66 299.92 211.29 300.57 210.95 300.96 210.573347 301.256961 210.130982 301.459283 209.66 301.55 195.7049 305.981656 181.465642 309.462957 167.04 311.97 166.57 312.07 166.09 312.12 165.73 312.17zM54.35 302.44C52.28 302.03 50.17 301.72 48.12 301.2 42.69 299.84 37.29 298.4 31.88 296.96 31.2902738 296.844813 30.7375981 296.587355 30.27 296.21 29.909095 295.82291 29.7403397 295.294632 29.81 294.77 29.9 294.44 30.55 294.14 31 294.03 31.4379932 293.994804 31.8783711 294.056252 32.29 294.21L54.41 299.63 54.76 299.71C55.58 299.95 56.35 300.31 56.15 301.33 55.95 302.35 55.23 302.4 54.35 302.44z"/>
  </g>
</svg>
