<svg xmlns="http://www.w3.org/2000/svg" width="391" height="370" viewBox="0 0 391 370">
  <g transform="translate(82 30)">
    <path d="M51.03,56.94 C50.9,57.42 50.74,57.94 50.65,58.38 C50.4030478,59.8065604 49.7819032,61.1420215 48.85,62.25 C48.4631224,62.7073775 48.0077217,63.102058 47.5,63.42 C46.8378658,63.7570227 46.4433905,64.4591887 46.5,65.2 C46.5,65.6 46.5,66 46.5,66.4 C46.4681089,68.5127698 45.4601248,70.4918156 43.77,71.76 C43.2690737,72.1031631 43.0306847,72.7190014 43.17,73.31 C43.3000781,74.3819175 43.3701872,75.4602634 43.38,76.54 C43.3778109,78.3275767 42.6571133,80.0392336 41.38,81.29 C41.18,81.49 40.99,81.7 40.78,81.88 C40.1921384,82.3651805 39.9963746,83.1808626 40.3,83.88 C40.7412042,85.2504723 40.9705146,86.6802898 40.98,88.12 C41.023133,89.7315181 40.584417,91.3192522 39.72,92.68 C39.2482032,93.382664 39.1510441,94.2720437 39.46,95.06 C39.8087156,96.1663367 40.0793802,97.2957764 40.27,98.44 C40.7276889,100.857566 40.2524617,103.358762 38.94,105.44 C38.4552327,106.092604 38.3779421,106.962123 38.74,107.69 C39.6953842,109.913353 39.7633701,112.418095 38.93,114.69 C38.6626869,115.443165 38.438983,116.211104 38.26,116.99 C37.8257636,119.370579 36.1451404,121.333852 33.86,122.13 C31.7227767,122.988118 29.3736759,123.169624 27.13,122.65 C23.01,121.65 19.67,118.46 20.13,113.31 C20.6433333,107.543333 21.15,101.77 21.65,95.99 C21.7120525,95.3963768 21.6884782,94.7969169 21.58,94.21 C20.9248563,90.9034599 21.6906237,87.4738378 23.69,84.76 C24.222622,84.0437693 24.4195181,83.132213 24.23,82.26 C23.6941774,79.4488809 24.3735857,76.5423213 26.1,74.26 C26.7165649,73.4787047 26.9513375,72.4625796 26.74,71.49 C26.11,67.58 27.53,64.34 30.27,61.63 C30.8275704,61.1120792 31.1521486,60.3907944 31.17,59.63 C31.2783237,57.2901661 32.2262298,55.0677345 33.84,53.37 C34.07,53.11 34.27,52.82 34.52,52.49 C33.52,51.7 32.64,51.06 31.31,51.42 C30.0801189,51.6820445 28.7965374,51.4561628 27.73,50.79 C27.0092675,50.3471392 26.1265318,50.2551875 25.33,50.54 C23.5759702,50.9646147 21.7578208,51.0562006 19.97,50.81 C19.13,50.81 18.3,50.67 17.46,50.65 C13.9948169,50.5670714 10.7423616,48.9609658 8.57,46.26 C7.57,45.1 6.72,43.76 5.78,42.52 C5.47057354,42.1133515 5.13661953,41.7259648 4.78,41.36 C4.15038616,40.8172812 3.56827108,40.2217842 3.04,39.58 C1.50942178,37.3678533 0.535187999,34.8190657 0.2,32.15 C-0.157538346,30.0908389 -0.00299699214,27.9753395 0.65,25.99 C0.76969801,25.650234 0.76969801,25.279766 0.65,24.94 C0.106790902,23.2074622 0.152502821,21.3438224 0.78,19.64 C1.9580614,15.6405325 5.48323115,12.7837923 9.64,12.46 C10.9095672,12.361564 12.1274684,11.9152309 13.16,11.17 C15.23,9.65 17.71,9.45 20.16,9.64 C23.1632425,9.81462903 26.0796001,10.7135534 28.66,12.26 C29.1494522,12.5326446 29.6851422,12.712338 30.24,12.79 C32.6874167,13.1336264 35.0742101,13.8203765 37.33,14.83 C38.05,15.19 38.33,15.12 38.62,14.49 C40.0356646,12.1532115 41.8937189,10.1151264 44.09,8.49 C46.4483593,6.50515 48.9935991,4.75362316 51.69,3.26 C54.3410377,1.75773962 57.2292584,0.719468236 60.23,0.19 C61.6552675,0.00159309304 63.0959539,-0.0419625403 64.53,0.06 C65.7596509,0.0373415223 66.8420609,0.8667745 67.14,2.06 C68.1462844,5.20459727 69.3623468,8.27816167 70.78,11.26 C72.54,15.56 74.34,19.83 76.12,24.12 C76.61,25.3 76.81,25.36 78.12,25.23 C79.63,25.07 81.12,25.03 82.66,24.96 C82.9805114,24.9456322 83.3012525,24.9827706 83.61,25.07 C86.5,25.99 89.27,27.07 91.12,29.71 C91.6459229,30.52741 92.5693314,31.0005615 93.54,30.95 C97.3,30.95 99.72,33.1 101.29,36.26 C101.680647,37.2193834 102.480586,37.9532729 103.47,38.26 C106.647908,39.2990633 109.436865,41.2757369 111.47,43.93 C111.79494,44.3280013 112.209614,44.6432907 112.68,44.85 C114.53867,45.7142367 116.163829,47.0102491 117.42,48.63 C118.21,49.63 119.01,50.63 119.74,51.63 C120.096716,52.1633206 120.373009,52.7462315 120.56,53.36 C120.835619,54.2844565 121.365829,55.112692 122.09,55.75 C124.457555,57.9374559 126.09493,60.8002446 126.78,63.95 C127.039933,64.82737 127.479204,65.641213 128.07,66.34 C128.917159,67.3961572 129.638668,68.5472162 130.22,69.77 C131.62996,72.6593232 132.283694,75.8591775 132.12,79.07 C132.079946,79.5476828 132.188199,80.0260946 132.43,80.44 C133.73,82.52 133.82,84.85 133.78,87.16 C133.672819,88.8390791 133.455687,90.5093267 133.13,92.16 C132.92,93.44 133.01,93.63 134.27,93.86 C136.92158,94.1842307 139.146785,96.0119391 139.98,98.55 C140.504751,99.9132613 140.476043,101.427607 139.9,102.77 C139.570798,103.460818 139.651666,104.277192 140.11,104.89 C141.789784,107.562124 141.919334,110.926619 140.45,113.72 C140.3,114.04 140.13,114.36 139.98,114.72 C139.98,114.72 139.98,114.8 139.98,114.96 C140.182833,115.156029 140.400111,115.336538 140.63,115.5 C144.63,118.166667 148.63,120.866667 152.63,123.6 C155.328609,125.537184 157.783088,127.793559 159.94,130.32 C163.643608,134.582553 166.798207,139.292615 169.33,144.34 C171.13,147.73 172.89,151.15 174.57,154.59 C178.63,162.89 182.57,171.25 186.18,179.75 C188.11,184.28 190.28,188.69 192.31,193.17 C194.42,197.84 196.48,202.52 198.57,207.17 C201.52,213.78 204.43,220.41 207.45,226.99 C209.88,232.29 212.53,237.5 214.96,242.81 C216.96,247.1 218.68,251.48 220.58,255.81 C222.72,260.68 224.88,265.54 227.1,270.37 C227.621761,271.367094 227.687381,272.540967 227.28,273.59 C226.133914,276.620616 224.438919,279.413968 222.28,281.83 C218.655599,285.829957 214.709017,289.525696 210.48,292.88 C207.544321,295.163947 204.404372,297.172443 201.1,298.88 C196.701568,301.289879 192.155929,303.420752 187.49,305.26 C184.462039,306.407269 181.34487,307.303622 178.17,307.94 C174.016234,308.7968 169.780591,309.192529 165.54,309.12 C162.62,309.12 159.71,309.29 156.79,309.32 C155.72,309.32 154.64,309.17 153.56,309.1 C152.824389,309.064142 152.162583,308.641956 151.82,307.99 C151.35,307.16 150.88,306.32 150.4,305.49 C146.2,298.22 141.92,290.99 137.83,283.66 C135.59,279.66 133.64,275.47 131.6,271.35 C130.19,268.48 128.87,265.56 127.47,262.69 C124.08,255.75 120.47,248.96 116.78,242.15 C113.6,236.15 110.69,230.09 107.78,224 C105.34,218.92 103.08,213.75 100.69,208.64 C98.5,203.93 96.17,199.28 94.03,194.54 C91.5655763,189.241341 89.6230733,183.715255 88.23,178.04 C87.7498165,176.138081 87.5211995,174.181388 87.55,172.22 C87.6858005,171.607811 87.5266156,170.967369 87.12,170.49 L86.4,170.89 C85.1,171.68 83.82,172.5 82.5,173.24 C81.56,173.78 81.43,173.85 81.56,174.92 C81.724988,176.348585 81.724988,177.791415 81.56,179.22 C81.240934,181.69908 80.1207924,184.00608 78.37,185.79 C77.48,186.74 77.45,186.73 78,187.84 C79.77,191.4 79.38,194.91 77.65,198.32 C77.1368134,199.230528 76.943193,200.28664 77.1,201.32 C77.29,202.62 77.36,203.94 77.44,205.26 C77.5242758,206.743528 77.1769411,208.2197 76.44,209.51 C75.9202028,210.37513 75.8103476,211.426078 76.14,212.38 C77.0694767,214.988882 76.9511862,217.856532 75.81,220.38 C75.4850151,221.126149 75.4850151,221.973851 75.81,222.72 C75.95,223.09 76.09,223.47 76.26,223.83 C77.3256292,226.065136 77.4232935,228.640579 76.53,230.95 C76.4119635,231.33256 76.2683054,231.70674 76.1,232.07 C75.7109348,232.788487 75.7980373,233.67139 76.32,234.3 C76.6953696,234.865243 77.0295665,235.456771 77.32,236.07 C78.3769337,238.005512 78.421737,240.335283 77.44,242.31 C77.0223419,243.092666 77.0684394,244.041507 77.56,244.78 C78.1161329,245.83968 78.6005537,246.935474 79.01,248.06 C79.5946639,249.532417 79.5366464,251.182289 78.85,252.61 C78.3957546,253.47149 78.4146263,254.505656 78.9,255.35 C79.7645906,257.088839 79.9671854,259.082799 79.47,260.96 C79.2087736,261.928108 79.4119844,262.962636 80.02,263.76 C81.6801281,265.901135 82.0620088,268.76906 81.02,271.27 C80.7242266,271.936693 80.7462873,272.701466 81.08,273.35 C81.9334329,274.995048 82.2582205,276.86345 82.01,278.7 C81.9534826,279.346758 82.1753632,279.986938 82.62,280.46 C84.4786619,282.982616 85.7558802,285.885385 86.36,288.96 C86.5846858,290.095342 86.6553217,291.255788 86.57,292.41 C86.4433192,293.949543 85.6645577,295.361503 84.43,296.29 C82.6828943,297.721175 80.5485435,298.598592 78.3,298.81 C75.09,299.18 72.89,297.47 71.48,294.58 C71.2080922,294.001022 71.0001943,293.394095 70.86,292.77 C70.1091803,289.818862 69.6206135,286.807149 69.4,283.77 C69.3567182,282.931739 69.3935519,282.091261 69.51,281.26 C69.66736,280.304575 69.4945332,279.324048 69.02,278.48 C67.7067916,276.172707 67.0691693,273.542515 67.18,270.89 C67.178815,270.053093 67.0403082,269.222053 66.77,268.43 C65.9065,266.124986 65.7841416,263.607899 66.42,261.23 C66.509722,260.805217 66.4890646,260.364527 66.36,259.95 C66.1930673,259.41597 65.9960866,258.891801 65.77,258.38 C64.9051203,256.329449 64.8550497,254.0262 65.63,251.94 C65.9641468,251.230698 65.7794843,250.385354 65.18,249.88 C62.55,247.23 62,243.98 62.61,240.45 C62.7999473,239.511373 62.7095259,238.537604 62.35,237.65 C61.4447069,235.518821 61.4447069,233.111179 62.35,230.98 C62.8704864,229.792468 62.6811998,228.413379 61.86,227.41 C60.0168082,224.790073 59.5199922,221.453248 60.52,218.41 C60.8366561,217.548571 61.2635396,216.731778 61.79,215.98 C62.2514002,215.369286 62.4330243,214.591935 62.29,213.84 C62.22,213.52 62.22,213.2 62.15,212.89 C61.6166345,210.056328 62.2789825,207.128243 63.98,204.8 C64.4800402,204.125007 64.5684148,203.229733 64.21,202.47 C63.8605755,201.414095 63.5865534,200.334715 63.39,199.24 C63.32,198.97 63.34,198.68 63.27,198.41 C62.462601,195.329049 63.2341208,192.048217 65.33,189.65 C66.440068,188.494194 66.972372,186.900953 66.78,185.31 C66.730611,184.274247 66.7808417,183.236145 66.93,182.21 C67.0064177,181.693568 67.0431918,181.172045 67.04,180.65 C66.88,178.15 68.16,176.3 69.8,174.65 C70.3409864,174.116331 70.9494863,173.655754 71.61,173.28 C72.3196861,172.879343 72.7152864,172.088143 72.61,171.28 C72.61,167.46 73.61,163.92 76.4,161.28 C77.8776584,159.910243 79.1536855,158.337935 80.19,156.61 C81.20821,155.179775 82.4197366,153.897576 83.79,152.8 C84.3564898,152.358516 84.7177883,151.704566 84.79,150.99 C85.2,146.99 85.67,142.99 86.06,139.07 C86.0999439,138.235616 86.0698384,137.399352 85.97,136.57 C85.9532961,135.999315 85.5336446,135.520912 84.97,135.43 C83.8190545,135.086989 82.6203594,134.931665 81.42,134.97 C79.7309045,135.014286 78.0593907,134.617947 76.57,133.82 C75.9241239,133.506101 75.3490676,133.06375 74.88,132.52 C74.0047013,131.481069 73.2280171,130.362911 72.56,129.18 C70.7795761,126.13803 70.7795761,122.37197 72.56,119.33 C73.5905897,117.422501 74.971339,115.726249 76.63,114.33 C77.3180181,113.786635 78.0745033,113.336106 78.88,112.99 C80.13,112.39 80.24,112.26 79.77,110.99 C78.32,107.05 76.95,103.08 75.38,99.19 C72.13,91.19 68.78,83.19 65.45,75.25 C64.3,72.48 63.08,69.75 61.92,66.98 C61.5263684,65.9580579 60.6417312,65.2051751 59.57,64.98 C57.0707929,64.4572771 54.8746879,62.9788535 53.45,60.86 C52.88,59.95 52.45,58.94 52,57.97 L51.53,56.97 L51.03,56.94 Z M152.66,302.83 C152.94,302.73 153.04,302.72 153.08,302.67 C153.32,302.4 153.56,302.14 153.78,301.85 C154.984519,300.143803 156.543407,298.717949 158.35,297.67 C158.695415,297.472551 159.065236,297.321261 159.45,297.22 C160.131744,297.032793 160.853383,297.33382 161.2,297.95 C161.497831,298.5485 161.344594,299.27327 160.83,299.7 C160.383491,300.095289 159.90521,300.453163 159.4,300.77 C158.026072,301.680237 156.866044,302.877795 156,304.28 C155.08,305.8 155.32,306.28 157.13,306.21 C160.85,306.163333 164.566667,306.076667 168.28,305.95 C169.878872,305.900367 171.474228,305.770202 173.06,305.56 C174.843406,305.322476 176.612657,304.988655 178.36,304.56 C180.816874,304.010647 183.240739,303.322884 185.62,302.5 C190.604081,300.635207 195.435356,298.38507 200.07,295.77 C203.181689,294.119848 206.140066,292.195564 208.91,290.02 C212.410911,287.162369 215.73378,284.093307 218.86,280.83 C220.897295,278.730331 222.56722,276.303193 223.8,273.65 C224.227664,272.742171 224.201716,271.685739 223.73,270.8 C221.65,266.25 219.65,261.67 217.63,257.1 C215.22,251.61 212.88,246.1 210.39,240.63 C208.05,235.5 205.48,230.47 203.15,225.34 C200.06,218.58 197.15,211.75 194.08,204.95 C192.04,200.39 189.98,195.836667 187.9,191.29 C186.38,187.94 184.82,184.61 183.32,181.29 C180.91,175.93 178.62,170.51 176.12,165.19 C173.44,159.47 170.61,153.82 167.75,148.19 C165.624437,143.840153 163.149662,139.669821 160.35,135.72 C158.559905,133.164429 156.456882,130.843041 154.09,128.81 C152.09,127.15 150.01,125.59 147.88,124.11 C145.23,122.25 142.5,120.49 139.78,118.74 C138.62,117.99 138.35,118.12 138.13,119.44 C137.895862,120.903892 137.422902,122.319395 136.73,123.63 C136.27,124.49 136.33,124.75 137.12,125.36 C138.12,126.17 139.24,126.93 140.29,127.73 C145.602872,131.530814 150.494019,135.88893 154.88,140.73 C157.153658,143.320601 159.098401,146.182295 160.67,149.25 C162.92,153.71 165.09,158.25 167.21,162.74 C169.443333,167.52 171.62,172.33 173.74,177.17 C175.62,181.45 177.38,185.79 179.21,190.1 C181.39,195.246667 183.58,200.396667 185.78,205.55 C185.958637,205.952672 186.099248,206.371159 186.2,206.8 C186.343539,207.405171 186.070618,208.032482 185.53,208.34 C184.958697,208.686147 184.223865,208.59066 183.76,208.11 C183.438831,207.759 183.178579,207.356793 182.99,206.92 C182.11,204.92 181.25,202.94 180.41,200.98 C177.41,193.9 174.47,186.81 171.41,179.76 C168.04,171.94 164.6,164.15 160.66,156.59 C160.1,155.53 159.66,154.42 159.11,153.34 C158.46,152.02 157.83,150.67 157.11,149.39 C154.177558,144.368028 150.347294,139.927634 145.81,136.29 C142,133.19 138.08,130.22 134.2,127.19 L133.82,126.9 C133.340226,126.556164 132.716436,126.485804 132.172125,126.714129 C131.627814,126.942454 131.240897,127.436781 131.15,128.02 C131.04,128.48 130.95,128.96 130.84,129.42 C130.44504,131.370219 129.285337,133.080962 127.62,134.17 C126.612927,134.816942 125.523071,135.324869 124.38,135.68 C123.451533,135.922152 122.680728,136.56816 122.28,137.44 C120.760968,140.604693 117.757064,142.797543 114.28,143.28 C113.514402,143.34925 112.841869,143.816604 112.51,144.51 C111.08,147.34 108.98,149.32 105.67,149.72 C105.016351,149.793637 104.45575,150.219847 104.21,150.83 C103.427204,152.506313 102.237826,153.960379 100.75,155.06 C100.431477,155.344316 100.228607,155.735819 100.18,156.16 C100.08,157.48 100.07,158.8 100.03,160.11 C100.00149,163.149272 100.148401,166.187656 100.47,169.21 C100.778649,172.798302 101.448712,176.346285 102.47,179.8 C104.396048,185.993456 106.837933,192.014541 109.77,197.8 C112.56,203.47 115.59,209.02 118.5,214.63 C119.92,217.36 121.23,220.15 122.76,222.82 C126.63,229.6 130.04,236.61 133.67,243.51 C134.99,246.03 136.33,248.51 137.67,251.03 C137.863993,251.421185 138.144394,251.763138 138.49,252.03 C139.9,253.03 139.84,254.47 139.76,255.92 C139.734255,256.49929 139.325151,256.990215 138.76,257.12 C138.203679,257.294648 137.597771,257.098029 137.25,256.63 C136.916057,256.234916 136.624462,255.805903 136.38,255.35 L127.87,239.09 C126.43,236.323333 124.976667,233.563333 123.51,230.81 C122.04,228.06 120.51,225.35 119.04,222.59 C116.04,216.93 113.04,211.26 110.17,205.59 C106.565402,198.762964 103.402247,191.711833 100.7,184.48 C98.2461909,177.613276 96.9682631,170.381827 96.92,163.09 C96.92,161.93 96.92,160.77 96.92,159.61 C96.8952525,159.27202 96.8383281,158.937171 96.75,158.61 L96.48,158.55 C96.2374552,158.896588 95.9771058,159.230369 95.7,159.55 C94.96,160.32 94.33,161.38 93.42,161.78 C91.620875,162.400881 90.5083779,164.203461 90.76,166.09 C90.86,168.92 90.66,171.77 90.9,174.59 C91.3523971,178.084379 92.2427246,181.50794 93.55,184.78 C95.7368449,190.568971 98.2167151,196.242967 100.98,201.78 C104.14,208.51 107.28,215.26 110.35,222.03 C113.75,229.496667 117.433333,236.83 121.4,244.03 C125.08,250.73 128.53,257.54 131.83,264.43 C135.41,271.89 138.9,279.43 143.1,286.55 C146.1,291.55 148.95,296.66 151.87,301.72 C152.09,302.06 152.38,302.43 152.66,302.83 Z M88.15,117.83 L88.15,117.96 C89.2528676,117.863728 90.3463214,117.679814 91.42,117.41 C92.7061572,116.939647 94.053286,116.65675 95.42,116.57 C96.348427,116.605915 97.2571292,116.295887 97.97,115.7 C99.2477358,114.606429 100.729652,113.7771 102.33,113.26 C102.810889,113.074695 103.242206,112.780304 103.59,112.4 C104.781522,110.91216 106.429671,109.857906 108.28,109.4 C109.219239,109.288975 109.977017,108.579824 110.15,107.65 C110.203371,107.416604 110.287436,107.191309 110.4,106.98 C110.665601,106.51066 110.536482,105.916714 110.1,105.6 C108.46,104.02 106.81,102.43 105.24,100.78 C104.256519,99.7331458 103.341301,98.6241958 102.5,97.46 C100.252207,94.1934819 98.3582204,90.6971496 96.85,87.03 C93.36,79.03 90.02,71.03 86.99,62.82 C86.7816507,62.29895 86.6209925,61.7600756 86.51,61.21 C86.3573196,60.4706158 86.7895701,59.7357899 87.51,59.51 C88.1838055,59.2699546 88.9313331,59.5646941 89.26,60.2 C89.5649633,60.7608674 89.8225261,61.3462373 90.03,61.95 C91.03,64.45 91.9,66.95 92.92,69.45 C95.33,75.29 97.72,81.14 100.27,86.92 C101.813728,90.6245449 103.85227,94.1028494 106.33,97.26 C108.007954,99.2412858 109.829547,101.096303 111.78,102.81 C112.17,103.18 112.51,103.81 113.15,103.61 C113.950497,103.445348 114.625645,102.911165 114.97,102.17 C115.07,101.91 115.13,101.63 115.22,101.37 C115.395534,100.798554 115.619686,100.243191 115.89,99.71 C116.352966,99.0237735 116.264936,98.1057427 115.68,97.52 C114.473324,96.0717095 113.354647,94.552312 112.33,92.97 C110.66,90.24 109.05,87.47 107.61,84.62 C104.98,79.41 102.49,74.13 99.95,68.87 C99.07,67.03 98.22,65.18 97.36,63.33 C95.6133333,59.5233333 93.86,55.71 92.1,51.89 C91.66,50.89 91.25,50.89 90.52,51.69 C90.06,52.19 89.64,52.69 89.17,53.22 C85.62,56.84 81.3,59.34 76.82,61.59 C73.4385758,63.3332833 69.8096859,64.5474101 66.06,65.19 C64.92,65.38 64.82,65.66 65.28,66.78 C66.28,69.14 67.28,71.5 68.23,73.86 C70.93,80.31 73.75,86.71 76.33,93.26 C78.91,99.81 81.28,106.43 83.74,113.03 C84.18,114.22 84.56,115.45 84.99,116.65 C85.42,117.85 85.5,117.89 86.83,117.88 C87.27,117.83 87.71,117.84 88.15,117.84 L88.15,117.83 Z M43.72,19.77 C43.9694838,20.2534709 44.243164,20.7240672 44.54,21.18 C47.9133333,25.8466667 51.08,30.65 54.04,35.59 C55.17,37.47 56.42,39.28 57.59,41.14 C58.0016527,41.8440753 58.7762447,42.254609 59.59,42.2 C59.991681,42.1998695 60.3927931,42.1697861 60.79,42.11 C65.4493899,41.459328 69.8251127,39.4883442 73.4,36.43 C74.4587511,35.506106 75.2554768,34.3196401 75.71,32.99 C75.9747823,32.2689333 75.9350766,31.4712094 75.6,30.78 C74.92,29.34 74.26,27.88 73.6,26.41 C71.96,22.46 70.35,18.5 68.7,14.55 C67.81,12.41 66.89,10.29 65.96,8.17 C65.43,6.96 65.14,6.91 64.17,7.84 C63.5168792,8.54726354 62.8223226,9.21510639 62.09,9.84 C59.09,12.09 56.01,14.39 52.85,16.48 C50.4516893,18.186003 47.6418187,19.2215819 44.71,19.48 C44.3717937,19.5460559 44.0403929,19.6431329 43.72,19.77 Z M118.33,95.53 C118.33,95.06 118.33,94.87 118.33,94.68 C117.955377,92.4947059 118.306603,90.2468535 119.33,88.28 C119.656178,87.7005158 119.526239,86.97118 119.02,86.54 C116.797934,83.9724198 115.715051,80.6118708 116.02,77.23 C116.098569,76.6697845 115.951057,76.1013253 115.61,75.65 C114.105358,73.6650249 113.146885,71.3205585 112.83,68.85 C112.771785,68.1583033 112.404295,67.5298958 111.83,67.14 C109.492636,65.4749357 107.817662,63.0386098 107.1,60.26 C106.898276,59.3503405 106.257266,58.6006215 105.39,58.26 C102.640316,57.1570981 100.490813,54.9348541 99.48,52.15 C99.2527889,51.4609135 98.691889,50.9338935 97.99,50.75 C97.1023083,50.397224 96.234371,49.9966375 95.39,49.55 C95.16,49.44 94.94,49.31 94.48,49.06 C94.68,49.66 94.77,50.06 94.93,50.39 C95.93,52.61 96.93,54.83 97.98,57.03 C100.09,61.52 102.19,66.03 104.33,70.48 C106.61,75.24 108.84,80.02 111.26,84.71 C112.7,87.51 114.42,90.17 116.08,92.86 C116.644582,93.891044 117.409569,94.7988289 118.33,95.53 Z M59.02,53.75 C57.78,53.75 56.94,53.75 56.1,53.75 C54.97,53.75 54.65,54.08 54.69,55.2 C54.65879,57.5806586 55.9537093,59.7812507 58.05,60.91 C60.1449067,62.1282944 62.6040011,62.5641282 64.99,62.14 C66.4,61.88 67.81,61.56 69.18,61.14 C72.7634369,60.0178928 76.2034416,58.480798 79.43,56.56 C80.67,55.86 81.85,55.02 83.03,54.19 C83.9,53.58 83.91,53.38 83.52,52.38 C82.75,50.38 82,48.43 81.23,46.46 C81.0739529,46.0479456 80.8970579,45.644091 80.7,45.25 C80.625437,45.0807507 80.4792085,44.9536254 80.3012334,44.9033281 C80.1232582,44.8530308 79.9321209,44.8848135 79.78,44.99 C79.5659888,45.1010156 79.3647879,45.2351495 79.18,45.39 C76.781498,47.2348406 74.2249214,48.8644908 71.54,50.26 C67.767105,52.5527451 63.4348963,53.7603655 59.02,53.75 Z M97.12,140.83 C97.4438654,140.60128 97.7543733,140.354209 98.05,140.09 C99.1209709,138.955165 100.519233,138.182625 102.05,137.88 C102.906553,137.700492 103.6617,137.199447 104.16,136.48 C106.42,133.71 109.03,131.48 112.84,131.33 C113.908618,131.35794 114.878585,130.708623 115.26,129.71 C115.37,129.46 115.52,129.22 115.64,128.97 C116.558276,126.852413 118.224314,125.147216 120.32,124.18 C123.21,122.91 122.42,123.07 123.54,120.43 C123.597318,120.327996 123.634652,120.215994 123.65,120.1 C123.65,119.79 123.65,119.39 123.49,119.21 C122.971134,118.662701 122.409345,118.157759 121.81,117.7 C121.649926,117.57043 121.440916,117.517923 121.238611,117.556457 C121.036306,117.594992 120.861234,117.720657 120.76,117.9 C120.59,118.12 120.45,118.37 120.27,118.59 C118.37534,121.13968 115.790072,123.093378 112.82,124.22 C112.25799,124.417952 111.74363,124.731337 111.31,125.14 C109.752683,126.654819 107.79654,127.695321 105.67,128.14 C104.626422,128.397105 103.665971,128.916919 102.88,129.65 C100.38,131.81 97.57,133.33 94.1,133.14 C93.7437319,133.124563 93.3876951,133.175426 93.05,133.29 C92.1,133.61 91.17,133.97 90.23,134.29 C89.29,134.61 89.17,134.84 89.15,135.88 C89.15,137.24 89.15,138.6 88.98,139.95 C88.71,142.65 88.35,145.35 88.06,148.05 C87.8802076,148.570702 87.9864676,149.147542 88.34,149.57 C88.4312587,149.452211 88.5147679,149.328618 88.59,149.2 C89.4494914,147.199622 90.9241944,145.525256 92.8,144.42 C93.2895577,144.113402 93.5613052,143.554379 93.5,142.98 C93.5,142.03 93.5,141.06 93.5,140.11 C93.5225013,139.592812 93.6167351,139.081257 93.78,138.59 C93.9506177,137.980064 94.5170832,137.566586 95.15,137.59 C95.7832705,137.572713 96.3492341,137.982831 96.53,138.59 C96.6538326,138.968662 96.7474591,139.356543 96.81,139.75 C96.95,140.06 97.02,140.35 97.12,140.83 Z M55.89,50.32 C56.1548003,50.4430549 56.433481,50.53371 56.72,50.59 C58.593405,50.6090979 60.4663921,50.5222928 62.33,50.33 C65.4805314,49.7262941 68.4894669,48.5356105 71.2,46.82 C74.9343828,44.8186462 78.3487493,42.2705109 81.33,39.26 C83.0521159,37.638978 84.4740084,35.7261941 85.53,33.61 C85.8094131,32.9484978 85.9977974,32.2521485 86.09,31.54 C86.2490863,30.4723957 85.6878144,29.4271284 84.71,28.97 C83.0272563,28.0957439 81.0886699,27.8476616 79.24,28.27 C78.42,28.4 78.29,28.77 78.6,29.58 C78.8801649,30.1963653 79.1271839,30.8272653 79.34,31.47 C79.4747653,31.9235339 79.4747653,32.4064661 79.34,32.86 C78.3589406,35.7142102 76.5396923,38.2060924 74.12,40.01 C69.825538,43.2115388 64.6791741,45.0696581 59.33,45.35 C58.18,45.35 58.06,45.56 57.63,46.66 C57.28,47.59 56.79,48.46 56.36,49.36 C56.25,49.64 56.1,49.91 55.89,50.32 Z M37.26,99.92 L37.16,99.92 L37.16,99.44 C37.06,96.76 36.26,94.44 33.93,92.82 C31.6,91.2 29.13,89.38 26.74,87.64 C26.29,87.3 25.88,87.33 25.67,87.84 C25.2625988,88.7024682 24.9539737,89.6082158 24.75,90.54 C24.5101225,92.4117866 24.7016765,94.3136437 25.31,96.1 C25.4743185,96.6744629 25.7924337,97.193129 26.23,97.6 C27.135124,98.4377647 28.1432295,99.1568799 29.23,99.74 C31.34,100.74 33.6,101.49 35.41,103.1 C36.08,103.7 36.6,103.5 36.83,102.64 C37.0190161,101.741147 37.1625321,100.833325 37.26,99.92 Z M43.7,16.26 C44.29,16.2 44.89,16.16 45.48,16.06 C47.6444019,15.654144 49.6928955,14.776706 51.48,13.49 C54.76,11.23 57.96,8.83 61.12,6.39 C61.8558398,5.72316608 62.4626204,4.92655467 62.91,4.04 C63.24,3.5 62.91,3.11 62.32,3.04 C61.8493087,3.0551177 61.382354,3.1290242 60.93,3.26 C57.9788165,3.81263567 55.1464721,4.87518781 52.56,6.4 C48.8291632,8.57822449 45.4394615,11.2940292 42.5,14.46 C42.1382487,14.8078781 41.9205108,15.2790486 41.89,15.78 C42.01,16.38 42.73,16.23 43.23,16.28 C43.38,16.31 43.54,16.26 43.7,16.26 Z M41.49,37.95 L41.6,37.69 C41.36,37.52 41.13,37.34 40.89,37.19 C40.29,36.86 39.69,36.56 39.09,36.19 C38.23,35.71 37.4,35.12 36.5,34.73 C34.1533555,33.8025224 32.1009964,32.2580703 30.56,30.26 C30.0305806,29.6085759 29.2291711,29.2392628 28.39,29.26 C26.9947149,29.2149062 25.6060675,29.0475993 24.24,28.76 C23.0269571,28.3349818 21.6941312,28.4142309 20.54,28.98 C20.0654737,29.186533 19.5735409,29.3505106 19.07,29.47 C17.79,29.9 17.55,30.54 18.15,31.75 C18.4653888,32.3763271 19.1460206,32.7307389 19.84,32.63 C21.2582044,32.6056725 22.6165417,33.200858 23.56,34.26 L23.9,34.59 C24.3987681,35.1736778 25.1323679,35.5037977 25.9,35.49 C27.9327203,35.4708262 29.8883996,36.266784 31.33,37.7 C31.7605754,38.2060581 32.487551,38.3397547 33.07,38.02 C35.4219879,36.9297492 38.1178511,36.8502465 40.53,37.8 C40.8444549,37.8886921 41.1654676,37.9522258 41.49,37.99 L41.49,37.95 Z M12.75,15.35 C11.51,15.48 10.51,15.54 9.53,15.69 C6.87506069,16.0011748 4.64668426,17.8346986 3.83,20.38 C3.71080012,20.701563 3.63676184,21.0381006 3.61,21.38 C3.61,22.04 3.85,22.33 4.5,22.45 C4.734847,22.4865366 4.97235026,22.5032622 5.21,22.5 C7.13530622,22.498504 9.0395604,22.9004753 10.8,23.68 C12.11,24.25 13.4,24.9 14.73,25.43 C15.6926566,25.8315782 16.6997671,26.1169262 17.73,26.28 C18.87,26.41 19.14,25.88 18.67,24.82 C17.92,23.1 17.22,21.36 16.41,19.67 C15.83,18.46 15.12,17.29 14.41,16.14 C14.0573182,15.5763256 13.4098652,15.2682004 12.75,15.35 Z M19.64,12.77 L19.64,12.96 C19.08,12.96 18.52,12.96 17.96,12.96 C16.89,13.05 16.67,13.54 17.21,14.49 C17.27,14.6 17.35,14.69 17.4,14.79 C18.11,16.13 18.85,17.46 19.51,18.79 C20.17,20.12 20.69,21.42 21.22,22.79 C21.7442821,24.1085538 22.8536959,25.1070262 24.22,25.49 C25.0568625,25.7602975 25.9173321,25.951141 26.79,26.06 C27.95,26.22 28.28,25.85 28.04,24.71 C27.6741675,22.917257 27.5098144,21.0892474 27.55,19.26 C27.5717253,18.5914012 27.5349184,17.9221834 27.44,17.26 C27.2994702,15.4734648 25.9878583,13.9984121 24.23,13.65 C22.71,13.26 21.17,13.04 19.64,12.77 Z M40.27,75.77 C40.3409843,73.7544564 39.6480821,71.7864713 38.33,70.26 C36.57,68.36 34.63,66.62 32.75,64.84 C32.26,64.39 31.97,64.46 31.53,64.96 C29.33,67.43 28.42,73.39 33.07,75.56 C33.22,75.63 33.35,75.71 33.49,75.79 C35.0360025,76.6344327 36.4536195,77.69512 37.7,78.94 C38.36,79.62 38.76,79.6 39.35,78.84 C40.0128154,77.9743971 40.3396424,76.8979993 40.27,75.81 L40.27,75.77 Z M66.27,197.47 C66.45,198.47 66.55,199.47 66.81,200.39 C67.07,201.31 67.48,201.58 68.41,201.19 C69.6965936,200.650848 70.9519022,200.039887 72.17,199.36 C74.5107882,198.008552 75.9548365,195.512901 75.96,192.81 C76.0692948,191.565239 75.7785242,190.318078 75.13,189.25 C74.8835244,188.66931 74.2532391,188.352053 73.64,188.5 C71.9146664,188.834025 70.274969,189.514397 68.82,190.5 C68.3288975,190.905738 67.932902,191.414388 67.66,191.99 C66.8214932,193.711736 66.3676619,195.595306 66.33,197.51 L66.27,197.47 Z M89.39,32.98 C89.1986225,33.2622895 89.0249551,33.5561881 88.87,33.86 C88.2382719,35.5037651 87.3432396,37.0337637 86.22,38.39 C85.52,39.26 84.76,40.09 84,40.9 C83.2300253,41.5851344 83.0240153,42.7058289 83.5,43.62 C84.09,45.02 84.57,46.46 85.12,47.88 C85.42,48.66 85.71,49.45 86.12,50.21 C86.53,50.97 86.82,51.03 87.4,50.44 C89.0846479,48.956328 90.3501794,47.0563066 91.07,44.93 C91.9684811,41.4200295 91.6837639,37.7116749 90.26,34.38 C90.0005001,33.8950568 89.709893,33.4274132 89.39,32.98 Z M37.95,87.74 C37.86,84.84 35.95,81.01 33.52,79.54 C32.09,78.67 30.71,77.7 29.31,76.78 C28.75,76.41 28.31,76.49 28.06,77.13 C27.7947418,77.7122482 27.5967945,78.3228652 27.47,78.95 C26.7645439,81.7176603 27.8530466,84.6322956 30.2,86.26 C32.12,87.69 34.09,89.06 36.05,90.44 C36.79,90.96 37.21,90.84 37.48,89.96 C37.7,89.26 37.8,88.48 37.95,87.74 Z M121.85,67.52 L117.35,68.15 C116.35,68.29 115.97,68.67 116.26,69.67 C116.575923,70.6973321 116.966977,71.7000369 117.43,72.67 C118.014745,74.066747 119.241677,75.0922976 120.72,75.42 C123.09,75.95 125.5,76.34 127.89,76.79 L128.01,76.79 C128.5,76.79 128.78,76.57 128.75,76.08 C128.739857,75.6806626 128.679379,75.2841997 128.57,74.9 C128.06,73.35 127.57,71.79 126.98,70.26 C126.21,68.26 124.68,67.39 121.85,67.52 Z M109,55.68 C109.739148,55.5941568 110.473435,55.4706629 111.2,55.31 C112.86,54.87 114.5,54.38 116.14,53.87 C116.94,53.63 117.14,53.19 116.54,52.53 C115.442082,51.1112242 114.209693,49.8018113 112.86,48.62 C111.321796,47.2240951 109.05076,47.0006479 107.27,48.07 C105.99,48.82 104.65,49.46 103.35,50.16 C102.52,50.61 102.35,50.98 102.82,51.8 C103.933252,54.2000705 106.354618,55.720281 109,55.68 Z M29.49,119.87 C30.57,119.63 31.68,119.47 32.74,119.13 C34.0976069,118.736477 35.0669709,117.539731 35.17,116.13 C35.420976,114.703177 34.7746886,113.267864 33.54,112.51 C32.1282805,111.586339 30.477035,111.09618 28.79,111.1 C28.4495655,111.117465 28.1131169,111.18139 27.79,111.29 C26.3420589,111.785205 25.0885833,112.727062 24.21,113.98 C23.7534387,114.529635 23.5411655,115.241894 23.6223506,115.951792 C23.7035358,116.661691 24.0711355,117.307635 24.64,117.74 C25.9484095,119.009408 27.6699974,119.765487 29.49,119.87 Z M63.14,221.26 C63.1716155,222.582206 63.4888703,223.881927 64.07,225.07 C64.6,225.87 64.99,226 65.73,225.46 C67.45,224.23 69.23,223.05 70.82,221.67 C72.979563,219.958002 73.9572406,217.153509 73.33,214.47 C73.14,213.56 72.86,213.47 71.99,213.78 C70.25,214.48 68.54,215.26 66.76,215.84 C64.554484,216.731466 63.1186655,218.881228 63.14,221.26 Z M47.64,56.95 C47.6284293,54.5839245 46.7249836,52.3092412 45.11,50.58 C43.96,49.24 42.74,47.98 41.54,46.69 C40.89,46 40.7,45.98 40.1,46.63 C39.0679509,47.7092041 38.3969814,49.0825949 38.18,50.56 C38.0495991,51.2788569 38.2194621,52.0197486 38.65,52.61 C39.29,53.48 39.95,54.33 40.65,55.17 C41.98,56.81 43.36,58.42 44.65,60.07 C45.31,60.89 45.76,60.95 46.44,60.07 C47.1483146,59.1764245 47.5669716,58.0879163 47.64,56.95 Z M116.33,65.01 C118.4,64.77 120.58,64.52 122.75,64.24 C123.29,64.17 123.45,63.85 123.23,63.24 C122.729573,61.5931342 121.887983,60.070095 120.76,58.77 C119.45,57.42 117.92,56.58 115.93,57.22 C114.33,57.73 112.71,58.15 111.11,58.63 C110.38,58.85 110.18,59.16 110.43,59.89 C110.720709,60.757943 111.095838,61.5952838 111.55,62.39 C112.502029,64.1147937 114.363895,65.1353146 116.33,65.01 Z M130.47,86.36 L130.61,86.36 C130.55758,85.4054386 130.433902,84.4561289 130.24,83.52 C129.72,81.52 128.62,80.09 126.39,79.77 C124.39,79.48 122.39,79.05 120.39,78.71 C119.55,78.57 119.19,78.85 119.39,79.71 C119.81,82.09 120.58,84.36 122.83,85.61 C125.08,86.86 127.32,87.86 129.59,88.94 C130.15,89.21 130.46,89.04 130.52,88.44 C130.540152,87.7462704 130.523462,87.0519601 130.47,86.36 Z M82.05,162.06 C81.1218787,161.943168 80.186305,162.210475 79.46,162.8 C77.5361642,164.459031 76.2580683,166.742609 75.85,169.25 C75.7957048,169.581122 75.7957048,169.918878 75.85,170.25 C75.92,171.06 76.21,171.33 77,171.25 C79.4947812,171.158151 81.9020696,170.306878 83.9,168.81 C85.4408686,167.58586 86.6537985,165.998399 87.43,164.19 C87.77,163.43 87.64,163.1 86.89,162.95 C85.14,162.59 83.4,162.26 82.05,162.06 Z M69.71,184.35 L69.8,184.35 L69.8,184.83 C69.87,186.01 70.21,186.26 71.33,185.83 C72.27,185.5 73.2,185.13 74.11,184.72 C77.4129275,183.033045 79.1935065,179.357538 78.47,175.72 C78.21,174.63 77.87,174.36 76.79,174.54 C75.0895687,174.802133 73.4830749,175.490139 72.12,176.54 C71.3014632,177.146289 70.7926903,178.08331 70.73,179.1 C70.6325731,179.774113 70.4956712,180.441927 70.32,181.1 C70.11,182.26 69.91,183.26 69.71,184.35 Z M38.5,27.35 L38.64,27.35 C38.5848861,27.945394 38.5848861,28.544606 38.64,29.14 C39.27,32.55 40.58,34 43.27,34.72 C44.39,35.02 44.67,34.85 45.07,33.79 C45.3776989,32.8869558 45.7589782,32.0106824 46.21,31.17 C46.6826961,30.4517614 46.6172034,29.5062109 46.05,28.86 C45.05,27.51 44.13,26.12 43.17,24.74 C42.64,23.99 42.17,23.23 41.57,22.5 C40.97,21.77 40.69,21.83 40.07,22.37 C39.4210492,22.915349 38.9796459,23.6675003 38.82,24.5 C38.68,25.46 38.61,26.41 38.5,27.36 L38.5,27.35 Z M121.75,111.76 C121.931781,111.706158 122.101525,111.617892 122.25,111.5 C123.594718,110.127415 124.693995,108.534309 125.5,106.79 C125.885703,105.818991 126.033152,104.769704 125.93,103.73 C125.884058,102.877019 125.476673,102.084073 124.81,101.55 C123.93,100.85 123.06,100.15 122.16,99.55 C121.26,98.95 120.8,98.92 119.93,99.67 C118.130408,101.201661 117.570438,103.744008 118.56,105.89 C119.46,107.8 120.47,109.66 121.45,111.54 C121.49,111.6 121.62,111.66 121.75,111.77 L121.75,111.76 Z M15.33,46.97 C15.33,46.4 15.25,46.13 15.22,45.86 C15.0341571,44.721429 14.9172774,43.5726693 14.87,42.42 C14.87,40.42 15.11,38.36 15.22,36.33 C15.2849267,35.4545355 15.2849267,34.5754645 15.22,33.7 C15.16,32.9 14.76,32.7 14.08,33.13 C13.1275774,33.6514615 12.2090784,34.2326209 11.33,34.87 C10.3344768,35.6639619 9.38619422,36.5154129 8.49,37.42 C7.71128804,38.1171301 7.54672645,39.2732807 8.1,40.16 C9.1465834,42.2027858 10.5837158,44.0204356 12.33,45.51 C12.8615669,45.9353927 13.4383793,46.3009308 14.05,46.6 C14.4648785,46.7609635 14.8932261,46.8847828 15.33,46.97 Z M14.27,28.97 C14.0057516,28.7324339 13.7213472,28.5182941 13.42,28.33 C12.26,27.78 11.12,27.18 9.93,26.74 C8.81097149,26.3078537 7.65667257,25.9732743 6.48,25.74 C4.73,25.41 4.14,25.85 3.48,27.55 C3.14500112,28.7142601 3.093568,29.9417973 3.33,31.13 C3.41972068,32.6028317 3.75781906,34.0498927 4.33,35.41 C4.53043211,35.75812 4.75428074,36.0922224 5,36.41 C5.12919367,36.36288 5.25318299,36.3025609 5.37,36.23 C5.51943242,36.0957698 5.65663889,35.9485239 5.78,35.79 C6.9761903,34.1828409 8.47410675,32.8241866 10.19,31.79 C11.19,31.17 12.19,30.55 13.12,29.91 C13.49,29.67 13.8,29.37 14.26,28.98 L14.27,28.97 Z M34.53,59.38 C34.76,61.53 35.07,62.81 36.53,63.96 C37.5094556,64.779245 38.4472954,65.6469971 39.34,66.56 C39.97,67.17 40.52,67.86 41.13,68.49 C41.74,69.12 42.23,69.04 42.69,68.34 C42.8864663,68.0295873 43.0379713,67.6929096 43.14,67.34 C43.6078515,65.8732705 43.4523744,64.2787257 42.71,62.93 C41.37,60.18 39.06,58.21 37.12,55.93 C36.68,55.43 36.22,55.49 35.8,56.04 C34.9918537,56.9709144 34.5385187,58.1573771 34.52,59.39 L34.53,59.38 Z M35.08,30.26 C35.4284928,29.6295924 35.5385281,28.8948407 35.39,28.19 C35.39,25.37 35.49,22.59 37.52,20.31 C38.14,19.62 38.06,19.31 37.37,18.7 C36.0147517,17.5043601 34.3583445,16.7020919 32.58,16.38 C30.99,16 30.66,16.2 30.69,17.79 C30.69,19.54 30.8,21.3 31,23.04 C31.237253,25.4095212 32.2618136,27.6311628 33.91,29.35 C34.2823759,29.675338 34.6730107,29.979165 35.08,30.26 Z M73.9,227.31 C73.7851052,226.661397 73.6314973,226.020251 73.44,225.39 C73.11,224.45 72.75,224.39 71.93,224.92 C70.84,225.66 69.79,226.46 68.7,227.2 C66.5228549,228.699577 65.1321287,231.095735 64.91,233.73 C64.8680379,234.480643 64.9768445,235.232089 65.23,235.94 C65.4,236.53 65.74,236.63 66.23,236.33 C67.73,235.42 69.23,234.55 70.69,233.53 C72.6823761,232.098104 73.8742796,229.803411 73.9,227.35 L73.9,227.31 Z M65.73,243.15 C65.6710518,244.419665 66.0216132,245.674675 66.73,246.73 C67.29,247.58 67.66,247.53 68.42,246.79 C69.55,245.68 70.74,244.61 71.93,243.54 C72.37,243.14 72.93,242.8 73.32,242.4 C75.0384638,240.849895 75.2819288,238.241342 73.88,236.4 C73.54,235.96 73.17,235.77 72.65,236.09 C71.16,237.01 69.65,237.86 68.17,238.87 C66.7212754,239.84497 65.8170321,241.445926 65.73,243.19 L65.73,243.15 Z M17.92,42.06 C17.92,42.71 17.92,43.35 18.07,43.98 C18.54,46.78 19.83,47.83 22.64,47.74 L23.24,47.74 C24.39,47.6 24.57,47.29 24.36,46.16 C24.09,44.79 23.9,43.41 23.69,42.04 C23.58,41.37 23.53,40.69 23.41,40.04 C23.1549789,38.567172 22.3374011,37.2511587 21.13,36.37 C19.65,35.26 18.48,35.77 18.33,37.54 C18.11,39.04 18.03,40.56 17.92,42.06 Z M23.92,109.53 L25.27,108.92 C27,108.11 28.77,107.48 30.71,108.03 C32.3128711,108.380206 33.8558793,108.963045 35.29,109.76 C35.5940428,109.88208 35.9087131,109.975811 36.23,110.04 C36.01,109.45 35.9,109.04 35.74,108.73 C34.6228642,106.396723 32.6655551,104.571568 30.26,103.62 C28.63,102.88 27.06,102 25.46,101.18 C25.23,101.06 24.97,100.97 24.58,100.8 C23.84,103.17 24.1,105.55 23.78,107.8 C23.7559032,108.37933 23.7961494,108.959545 23.9,109.53 L23.92,109.53 Z M87.75,130.26 C87.67,131.43 87.91,131.66 88.75,131.47 C90.1657997,131.141184 91.517403,130.580268 92.75,129.81 C93.8237334,129.18088 94.5080277,128.052922 94.57,126.81 C94.73,124.86 94.95,122.92 95.14,120.98 C95.23,120.11 94.95,119.83 94.14,120.05 C91.54,120.74 89.56,122.2 88.87,124.9 C88.33,126.71 88.04,128.66 87.75,130.26 Z M74.33,204.63 C74.2937125,204.179914 74.2302636,203.732432 74.14,203.29 C73.96,202.56 73.71,202.44 73.01,202.73 C71.55,203.36 70.07,203.96 68.66,204.73 C68.0126459,205.031601 67.4696237,205.518928 67.1,206.13 C66.4469532,207.490045 65.8791889,208.889416 65.4,210.32 C65.2592681,210.779307 65.2083401,211.261426 65.25,211.74 C65.25,212.6 65.67,212.88 66.52,212.64 C68.3365137,212.17496 70.0540883,211.385621 71.59,210.31 C73.3901788,208.989388 74.4169293,206.860942 74.33,204.63 Z M129.79,94.12 C129.645084,93.6767003 129.43258,93.2584381 129.16,92.88 C128.623397,92.3022454 128.007204,91.8039031 127.33,91.4 C126.33,90.86 125.33,90.4 124.33,89.99 C122.56,89.21 122.09,89.4 121.68,91.32 C121.504957,92.2182181 121.504957,93.1417819 121.68,94.04 C121.826032,94.6978195 122.175994,95.2927536 122.68,95.74 C124.12,97 125.68,98.16 127.17,99.34 C127.7,99.75 128.07,99.71 128.36,99.16 C129.17959,97.5967743 129.666486,95.8807235 129.79,94.12 Z M107.43,44.33 C107.100882,43.9366611 106.732287,43.5781182 106.33,43.26 C105.345592,42.5794128 104.289224,42.0093096 103.18,41.56 C99.57,40.33 98.1,41.05 95.97,43.28 L95.89,43.37 C95.5924911,43.5910793 95.4044544,43.9294498 95.3738313,44.2988409 C95.3432082,44.6682321 95.472958,45.0329475 95.73,45.3 C97.16,47.37 98.8,48.43 101.73,47.3 C102.900159,46.7881212 104.038837,46.2070953 105.14,45.56 C105.82,45.26 106.51,44.84 107.43,44.33 Z M76.03,250.26 C76.0102845,249.071693 75.7050324,247.905562 75.14,246.86 C74.66,245.86 74.37,245.79 73.5,246.44 C71.369291,248.005689 69.7090219,250.125991 68.7,252.57 C68.1834529,253.849515 68.1620621,255.275567 68.64,256.57 C68.87,257.28 69.16,257.44 69.79,257.09 C71.5055311,256.230142 73.0639939,255.087494 74.4,253.71 C75.3420524,252.794518 75.921027,251.569081 76.03,250.26 Z M118.7,114.09 C118.482056,113.221996 118.204736,112.36999 117.87,111.54 C117.2,110.09 116.41,108.7 115.66,107.28 C115.17,106.37 114.74,106.28 114.06,107.15 C113.85862,107.398064 113.67801,107.66229 113.52,107.94 C112.796757,109.296715 112.563646,110.861382 112.86,112.37 C113.07,113.79 113.37,115.2 113.58,116.62 C113.69,117.33 113.67,118.06 113.76,118.77 C113.88,119.77 114.27,119.92 115.02,119.39 C115.655427,118.973231 116.242388,118.486891 116.77,117.94 C117.835386,116.919739 118.516929,115.563716 118.7,114.1 L118.7,114.09 Z M137.17,100.72 C137.119626,99.2285945 136.194301,97.9072612 134.81,97.35 C134.297134,97.1125537 133.707748,97.1031812 133.187591,97.3242003 C132.667434,97.5452194 132.26507,97.9759946 132.08,98.51 C131.33,100.05 130.52,101.51 129.76,103.09 C129.57692,103.390529 129.486485,103.738356 129.5,104.09 C129.71239,105.102726 129.976063,106.104015 130.29,107.09 C130.57,108 130.9,108.09 131.64,107.46 C132.857839,106.493485 134.019716,105.45848 135.12,104.36 C135.804173,103.536147 136.397597,102.640982 136.89,101.69 C137.033066,101.386651 137.127552,101.062696 137.17,100.73 L137.17,100.72 Z M86.55,121.26 C86.031469,121.296524 85.5165752,121.373424 85.01,121.49 C83.2684911,122.057994 81.8275776,123.300782 81.01,124.94 C80.09,126.66 79.25,128.43 78.39,130.19 C78.07,130.85 78.2,131.08 78.92,131.35 C79.9353499,131.725052 81.0248661,131.855246 82.1,131.73 C83.94,131.54 84.34,131.17 84.65,129.33 C84.7,129.06 84.75,128.78 84.79,128.5 C85.0250947,126.314641 85.5462186,124.169628 86.34,122.12 C86.4319582,121.839145 86.5021655,121.551629 86.55,121.26 Z M97.6,129.26 C98,129.09 98.36,128.97 98.7,128.8 C100.061265,128.048272 101.255458,127.027594 102.21,125.8 C103.161539,124.700392 103.575525,123.234954 103.34,121.8 C103.15,120.42 102.91,119.04 102.66,117.67 C102.51,116.89 102.18,116.74 101.48,117.12 C101.102254,117.341259 100.747208,117.599169 100.42,117.89 C98.9721654,119.165498 98.0907791,120.964245 97.97,122.89 C97.76,124.89 97.59,126.89 97.42,128.83 C97.41,128.86 97.47,128.94 97.6,129.26 Z M125.06,126.26 C123.107953,126.191904 121.224676,126.985441 119.91,128.43 C119.221091,129.304167 118.627713,130.24955 118.14,131.25 C117.84,131.77 118,132.15 118.62,132.35 C119.300694,132.579063 120.005214,132.730032 120.72,132.8 C123.105057,133.121605 125.486195,132.182778 127.01,130.32 C127.595801,129.603693 127.891935,128.693883 127.84,127.77 C127.888573,127.468958 127.807619,127.161412 127.617128,126.923298 C127.426636,126.685184 127.144361,126.538694 126.84,126.52 C126.2,126.36 125.56,126.26 125.06,126.26 Z M113,140.14 C115.388007,140.032591 117.587215,138.810808 118.94,136.84 C119.39,136.2 119.26,135.84 118.46,135.62 C116.661753,134.952488 114.758131,134.613765 112.84,134.62 C110.65,134.71 109.2,136.03 107.74,137.4 L107.67,137.49 C107.43,137.85 107.44,138.2 107.83,138.41 C109.38823,139.39125 111.163507,139.974997 113,140.11 L113,140.14 Z M50.39,53.02 C51.0577886,52.670856 51.4801924,51.9834898 51.49,51.23 C51.7328841,49.9179193 51.5175262,48.5622238 50.88,47.39 C50.3648781,46.4907042 49.7972283,45.6225339 49.18,44.79 C47.88,43.07 46.28,41.59 45.3,39.63 C45.3,39.54 45.11,39.5 44.89,39.36 C44.6533652,39.6258624 44.4639657,39.9302545 44.33,40.26 C44.029177,41.2387532 43.8183025,42.2429175 43.7,43.26 C43.701132,43.8520002 43.9019623,44.4263043 44.27,44.89 C44.9523105,45.7757131 45.7011466,46.6081247 46.51,47.38 C47.9082381,48.7562018 49.0435125,50.3760859 49.86,52.16 C49.99,52.41 50.18,52.66 50.39,53.02 Z M96.39,152.96 C98.4802225,152.90434 100.35201,151.651293 101.2,149.74 C101.346828,149.513347 101.380077,149.23136 101.289992,148.976772 C101.199907,148.722184 100.996704,148.523865 100.74,148.44 C99.9306248,148.009514 99.0957407,147.628807 98.24,147.3 C94.8,145.97 92.6,148.18 91.51,150.59 C91.22,151.23 91.36,151.59 91.99,151.85 C93.357356,152.480204 94.8279775,152.85633 96.33,152.96 L96.39,152.96 Z M71.7,275.49 C72.0181692,275.397456 72.3263511,275.273513 72.62,275.12 C73.7413934,274.426602 74.8169539,273.661685 75.84,272.83 C76.6217324,272.137149 77.2958077,271.331629 77.84,270.44 C78.5343066,269.236149 78.5977578,267.769309 78.01,266.51 C77.6,265.51 77.07,265.38 76.15,265.98 C75.23,266.58 74.21,267.25 73.2,267.81 C72.4720903,268.165209 71.9147005,268.79452 71.65,269.56 C71.0723025,271.497052 71.0897217,273.562965 71.7,275.49 Z M106.7,124.14 C109.086166,123.691548 110.786279,121.566408 110.7,119.14 C110.48,117.28 110.13,115.44 109.83,113.58 C109.825442,113.381327 109.766656,113.18768 109.66,113.02 C109.458989,112.799307 109.192698,112.648642 108.9,112.59 C107.518283,112.758304 106.369767,113.733755 105.98,115.07 C105.867707,116.066848 105.867707,117.073152 105.98,118.07 C106.12,119.78 106.34,121.48 106.53,123.18 C106.55,123.45 106.61,123.76 106.67,124.14 L106.7,124.14 Z M88.7,159.93 C90.7784864,159.979976 92.6928131,158.805542 93.59,156.93 C93.99,156.23 93.91,155.93 93.15,155.64 C92.2201932,155.276721 91.2682826,154.972778 90.3,154.73 C87.4873485,153.926732 84.4972096,155.208817 83.14,157.8 C82.73,158.49 82.83,158.8 83.63,159.01 C85.26,159.37 86.95,159.63 88.65,159.93 L88.7,159.93 Z M105.03,146.46 C106.714616,146.396038 108.24975,145.475712 109.1,144.02 C109.7,143.19 109.61,142.74 108.69,142.33 C107.606157,141.827268 106.482258,141.415841 105.33,141.1 C103.146681,140.403817 100.773382,141.323991 99.63,143.31 C99.21,143.95 99.22,144.19 99.91,144.53 C100.91,145.05 101.99,145.53 103.06,145.97 C103.704449,146.179031 104.362719,146.342763 105.03,146.46 Z M129.81,123.66 C131.208312,123.821046 132.602038,123.322948 133.581535,122.312107 C134.561031,121.301267 135.014996,119.892548 134.81,118.5 C134.72,117.63 134.42,117.32 133.57,117.5 C132.353903,117.703605 131.163566,118.038911 130.02,118.5 C128.445386,119.129476 127.169111,120.33425 126.45,121.87 C126.07,122.71 126.2,123.07 127.09,123.25 C127.98,123.43 128.91,123.53 129.81,123.66 Z M76.5,258.77 C76.5,258.57 76.5,258.32 76.43,258.09 C76.24,257.04 75.86,256.87 74.98,257.46 C73.72,258.3 72.45,259.13 71.21,260.01 C69.6290096,261.116909 68.8647311,263.063062 69.27,264.95 C69.53,265.89 69.8,266.07 70.61,265.61 C71.89,264.88 73.16,264.12 74.37,263.29 C75.7845927,262.228936 76.582181,260.536402 76.5,258.77 Z M74.22,124.02 C74.41,124.91 74.57,125.81 74.81,126.69 C74.95,127.17 75.11,127.86 75.72,127.77 C76.06,127.77 76.38,127.15 76.59,126.77 C77.83,124.5 78.66,121.98 80.71,120.22 C80.7390997,120.192254 80.7658574,120.162152 80.79,120.13 C81.14,119.63 81.11,119.34 80.57,119.07 C79.6650856,118.535439 78.6180484,118.29113 77.57,118.37 C77.1387005,118.411716 76.7354992,118.602706 76.43,118.91 C75.1276854,120.308552 74.3471911,122.113224 74.22,124.02 Z M48.85,33.53 C48.6474147,33.7511111 48.4727722,33.9962823 48.33,34.26 C47.6737249,35.8996496 47.8293903,37.7528087 48.75,39.26 C49.1298295,39.8242799 49.5474524,40.3621782 50,40.87 C51.3986017,42.3559471 52.6231803,43.996547 53.65,45.76 C53.76,45.98 54,46.13 54.31,46.43 C55.047684,44.8756196 54.9343627,43.0511476 54.01,41.6 C52.59,39.28 51.1566667,36.97 49.71,34.67 C49.4502913,34.2703941 49.1629219,33.8894626 48.85,33.53 Z M74.1,290.38 C74.58,290.14 74.95,289.96 75.3,289.76 C77.22,288.62 79.08,287.38 81.35,287 C82.1,286.87 82.35,286.49 82.01,285.78 C81.533849,284.773177 80.9996159,283.794863 80.41,282.85 C80.3081549,282.6836 80.1379088,282.570783 79.9449735,282.541843 C79.7520383,282.512903 79.5561846,282.570804 79.41,282.7 C79.02,282.98 78.65,283.28 78.27,283.57 C77.27,284.31 76.27,284.99 75.27,285.8 C73.8998348,286.893348 73.4220996,288.763456 74.1,290.38 Z M31.83,46.79 C31.7769053,44.7407478 31.179838,42.7424705 30.1,41 C29.5368903,40.170001 28.7398159,39.5260762 27.81,39.15 C27.04,38.84 26.62,39.15 26.7,39.95 C26.83,41.46 26.98,42.95 27.24,44.45 C27.4001931,45.2287472 27.6730626,45.9799805 28.05,46.68 C28.4705075,47.6713241 29.4890028,48.2718712 30.56,48.16 C30.9230735,48.188853 31.279367,48.0498483 31.5269752,47.7827434 C31.7745834,47.5156385 31.8862365,47.1498504 31.83,46.79 Z M138.33,109.62 C138.251551,108.945069 138.124556,108.276671 137.95,107.62 C137.72,106.89 137.25,106.77 136.68,107.3 C135.12,108.72 133.58,110.16 132.1,111.67 C131.653657,112.173506 131.313533,112.761922 131.1,113.4 C130.76,114.25 131.1,114.65 131.99,114.49 C133.087506,114.297336 134.172716,114.040224 135.24,113.72 C137.44,113.06 138.2,111.98 138.33,109.62 Z M77.51,295.62 C78.8875425,295.54221 80.2287573,295.148742 81.43,294.47 C82.0701532,294.011458 82.6337787,293.454582 83.1,292.82 C83.5414477,292.311386 83.5745862,291.565771 83.18,291.02 C82.7726094,290.396467 82.0033,290.115608 81.29,290.33 C80.7058585,290.459419 80.141094,290.664483 79.61,290.94 C78.48,291.61 77.38,292.33 76.3,293.08 C75.83,293.41 75.18,293.77 75.37,294.47 C75.56,295.17 76.31,295.38 76.97,295.55 C77.1324481,295.574427 77.2959662,295.591112 77.46,295.6 L77.51,295.62 Z M72.7,280.62 C72.77,281.09 72.81,281.62 72.91,282.03 C73.12,282.97 73.43,283.13 74.22,282.58 C75.4471658,281.772233 76.6166552,280.880079 77.72,279.91 C78.7087568,279.04304 79.1262563,277.693898 78.8,276.42 C78.58,275.42 78.15,275.25 77.28,275.84 C76.16,276.59 75.06,277.37 73.96,278.16 C73.1366918,278.69753 72.6431618,279.616777 72.65,280.6 L72.7,280.62 Z M35.18,48.08 C35.38,47.93 35.51,47.88 35.55,47.79 C36.542525,45.6841978 38.044504,43.8591387 39.92,42.48 C40.57,42.02 40.5,41.48 39.79,41.06 C38.4643488,40.2776805 36.8696937,40.0924245 35.4,40.55 C34.23,40.91 34.09,41.31 34.31,42.55 C34.6,44.07 34.77,45.62 35,47.15 C35.04,47.41 35.11,47.71 35.18,48.08 Z M128.47,110.8 C128.36,110.62 128.24,110.24 127.98,110.08 C127.57,109.83 127.36,110.26 127.14,110.53 L124.62,113.53 C124.42,113.77 124.23,114.03 124.05,114.29 C123.919791,114.445081 123.859847,114.647279 123.884497,114.848269 C123.909147,115.049259 124.016174,115.23098 124.18,115.35 C124.57,115.69 124.98,116.02 125.36,116.35 C125.74,116.68 126.11,116.99 126.64,116.72 C127.17,116.45 127.64,116.12 127.64,115.48 C127.588268,114.043518 127.840435,112.612301 128.38,111.28 C128.42511,111.123206 128.455245,110.962486 128.47,110.8 Z M93.92,34.37 C93.8563397,34.5186476 93.8223686,34.6783116 93.82,34.84 C94.05,36.21 94.29,37.58 94.57,38.94 C94.7,39.53 95,39.65 95.57,39.34 C96.33,38.91 97.06,38.42 97.8,37.95 C98.0060451,37.8492386 98.1507227,37.6551473 98.1884298,37.428905 C98.2261368,37.2026626 98.1522281,36.9721403 97.99,36.81 C97.4540266,36.1308497 96.8472743,35.5106884 96.18,34.96 C95.5796378,34.3852899 94.7246742,34.1620914 93.92,34.37 Z"/>
    <path d="M134.24 135.17C138.15 135.17 141.14 136.48 143.05 139.65 144.76 142.49 146.44 145.36 148 148.29 150.68 153.29 153.28 158.43 155.88 163.52 158.676804 169.055346 160.995246 174.819669 162.81 180.75 163.33 182.44 164.06 184.05 164.49 185.75 165.076123 187.659975 165.767173 189.536159 166.56 191.37 168.111084 195.064541 170.127375 198.546004 172.56 201.73 175.56 206.01 178.7 210.22 181.56 214.59 184.23 218.59 186.63 222.83 189.18 226.94 191.97 231.42 194.85 235.85 197.57 240.37 199.836824 244.141976 201.877099 248.045546 203.68 252.06 204.87 254.68 206.2 257.23 207.41 259.85 208.62 262.47 209.7 265.04 210.85 267.64 211.463189 269.088929 211.516642 270.713906 211 272.2 210.153185 274.630805 208.788377 276.848618 207 278.7 205.58 280.33 204.15 281.95 202.66 283.51 200.923172 285.404298 198.798184 286.901681 196.43 287.9 192.683498 289.525025 188.788731 290.78421 184.8 291.66 182.61 292.08 180.37 292.22 178.15 292.47 177.35 292.56 176.56 292.65 175.76 292.69 174.716202 292.905285 173.695481 292.233757 173.48 291.19 173.15 290.25 172.93 289.27 172.65 288.31 172.21 286.86 172.1 286.81 170.65 286.9 168.412193 286.975668 166.173925 286.763939 163.99 286.27 162.968981 286.076408 162.187044 285.250134 162.05 284.22 161.55 282.08 161.05 279.94 160.57 277.79 159.135336 271.26633 157.342624 264.826586 155.2 258.5 154.430802 256.147962 153.425688 253.879753 152.2 251.73 151.32 250.21 150.52 248.63 149.71 247.07 147.28 242.39 144.96 237.64 142.41 233.02 138.530691 225.753884 135.055405 218.279182 132 210.63 130.320153 206.635271 129.011306 202.494495 128.09 198.26 127.75 196.65 127.38 195.05 127.09 193.44 126.381282 190.071271 125.217261 186.814704 123.63 183.76 122.85 182.18 122.07 180.6 121.38 178.99 119.77 175.23 117.27 171.99 114.84 168.83 113.598 167.321031 112.586973 165.635985 111.84 163.83 111.05 161.7 110.21 159.58 109.45 157.43 109.156589 156.267791 109.184239 155.047724 109.53 153.9 110.07 151 111.94 149.01 113.81 146.98 114.16 146.59 114.56 146.26 114.91 145.87 118.97 141.29 124.3 138.63 129.75 136.17 131.181836 135.59313 132.698684 135.255302 134.24 135.17zM142.24 144.74C141.88 145.24 141.67 145.56 141.44 145.87 140.7 146.87 140.02 147.87 139.21 148.82 136.583903 151.632921 133.483287 153.961768 130.05 155.7 127.76 156.93 125.39 157.99 123.05 159.12 121.8 159.72 121.72 159.87 122.24 161.12 123.240013 163.484073 124.588287 165.68513 126.24 167.65 128.3 170.14 130.45 172.56 132.6 174.98 134.617861 177.245597 136.301552 179.78797 137.6 182.53 139.02613 185.662304 140.222618 188.894158 141.18 192.2 142.16756 195.579945 143.370008 198.893357 144.78 202.12 146.72 206.51 148.78 210.86 150.66 215.26 153.11 220.91 155.46 226.61 157.9 232.26 160.49 238.26 163.23 244.16 165.04 250.45 166.51 255.56 168.09 260.64 169.54 265.76 171.04 271.07 172.43 276.41 173.91 281.76 174.51 283.91 175.23 286.04 175.91 288.17 176.28 289.32 176.52 289.44 177.77 289.33 178.33 289.28 178.89 289.28 179.45 289.2 181.27 288.96 183.1 288.76 184.9 288.42 187.71176 287.784456 190.470023 286.931902 193.15 285.87 195.537301 285.165784 197.721444 283.900558 199.52 282.18 201.47 280.12 203.38 278.01 205.24 275.88 206.345347 274.659459 207.210479 273.24132 207.79 271.7 208.174508 270.764641 208.174508 269.715359 207.79 268.78 207.27 267.53 206.79 266.27 206.18 265.03 205.969377 264.64078 205.732147 264.266558 205.47 263.91 205.04 264.37 204.7 264.68 204.41 265.04 202.941522 266.83696 201.292927 268.478854 199.49 269.94 196.313379 272.630643 192.784084 274.874723 189 276.61 188.676735 276.772859 188.342607 276.913193 188 277.03 187.651485 277.19741 187.250544 277.218698 186.886262 277.089134 186.521979 276.959569 186.224528 276.689884 186.06 276.34 185.728628 275.568042 186.046493 274.671054 186.79 274.28 187.3 273.97 187.84 273.71 188.38 273.45 193.10618 271.158412 197.365193 268.008234 200.94 264.16 201.752228 263.222698 202.484773 262.219212 203.13 261.16 203.658241 260.372584 203.711999 259.358868 203.27 258.52 203.07 258.09 202.87 257.65 202.65 257.22 200.99 253.89 199.3 250.58 197.65 247.22 195.45 242.67 192.51 238.57 189.87 234.27 189.3 233.34 188.99 233.37 188.26 234.27 187.53 235.17 186.99 235.82 186.32 236.56 184.13 238.94 181.39 240.62 178.75 242.42 178.51554 242.571524 178.259227 242.686191 177.99 242.76 176.72 243.09 175.76 242.17 176.16 240.94 176.367849 240.434105 176.71452 239.997299 177.16 239.68 178.24 238.86 179.39 238.13 180.5 237.34 182.530041 235.909584 184.322016 234.16823 185.81 232.18 187.11 230.45 187.13 229.88 186.03 228.06 184.26 225.16 182.46 222.28 180.72 219.36 177.4 213.82 173.46 208.72 169.72 203.5 169.552026 203.303964 169.36059 203.129321 169.15 202.98L168.92 203.06C168.99 203.47 169.03 203.89 169.12 204.29 169.51 205.92 169.93 207.55 170.31 209.19 170.607154 209.979446 170.227393 210.862609 169.45 211.19 168.6965 211.470222 167.855095 211.115255 167.53 210.38 167.221899 209.822126 166.996223 209.222569 166.86 208.6 166.12 205.566667 165.406667 202.53 164.72 199.49 163.908113 195.612798 162.859483 191.78897 161.58 188.04 161.477857 187.837055 161.353784 187.645915 161.21 187.47 160.75 187.7 160.33 187.9 159.92 188.12 158.44 188.91 156.98 189.75 155.47 190.49 155.136022 190.691321 154.734674 190.748582 154.357722 190.64869 153.98077 190.548797 153.660449 190.300294 153.47 189.96 153.054265 189.227175 153.282352 188.297279 153.99 187.84 154.54 187.45 155.15 187.14 155.74 186.84 156.85 186.21 157.99 185.62 159.07 184.93 160.15 184.24 160.24 183.85 159.87 182.71 159.01 180 158.2 177.28 157.2 174.62 154.758722 168.576083 152.001589 162.664602 148.94 156.91 148.736663 156.58108 148.505838 156.269968 148.25 155.98 147.9 156.34 147.63 156.57 147.41 156.83 146.85 157.51 146.3 158.2 145.75 158.89 143.772552 161.356401 141.316639 163.397325 138.53 164.89 137.929836 165.212159 137.291477 165.457423 136.63 165.62 135.870672 165.886685 135.038732 165.488606 134.77 164.73 134.484415 163.98711 134.820248 163.149708 135.54 162.81 136.06 162.52 136.64 162.31 137.15 162.01 137.951745 161.562685 138.726422 161.068495 139.47 160.53 141.9351 158.550138 144.065651 156.18661 145.78 153.53 146.306473 152.852966 146.342679 151.915628 145.87 151.2 144.87 149.39 143.87 147.55 142.87 145.73 142.68928 145.384444 142.48199 145.053448 142.25 144.74L142.24 144.74zM168 283.66C169.66 283.66 170.43 283.1 170.47 281.75 170.464003 281.350306 170.403444 280.953304 170.29 280.57 170.08 279.8 169.82 279.04 169.61 278.27 167.23 269.72 165.12 261.1 162.44 252.63 161.2 248.74 159.96 244.86 158.34 241.11 156.2 236.15 154.066667 231.19 151.94 226.23 150.05 221.86 148.18 217.49 146.27 213.13 144.61 209.32 142.78 205.58 141.27 201.71 139.63 197.5 138.27 193.18 136.81 188.91 135.894638 185.920073 134.547053 183.080038 132.81 180.48 130.947619 177.826302 128.884933 175.318985 126.64 172.98 123.239586 169.414541 120.488224 165.282421 118.51 160.77 118.327431 160.370723 118.193149 159.951091 118.11 159.52 117.922605 158.700028 118.341585 157.862067 119.11 157.52 119.39 157.37 119.68 157.24 119.97 157.1 122.5 155.91 125.04 154.73 127.56 153.5 128.412042 153.061437 129.239902 152.577406 130.04 152.05 130.266401 151.950483 130.436632 151.755191 130.504317 151.517326 130.572003 151.279461 130.530091 151.023803 130.39 150.82 130.046783 150.187842 129.666105 149.576753 129.25 148.99 128.84 148.44 128.51 148.41 127.9 148.75 127.73 148.85 127.57 148.98 127.4 149.09 123.167205 151.98242 118.483509 154.151925 113.54 155.51 112.73 155.71 112.54 155.97 112.64 156.78 112.664296 157.059966 112.724801 157.335598 112.82 157.6 113.76 159.926667 114.713333 162.26 115.68 164.6 115.812301 164.845003 115.973447 165.073293 116.16 165.28 117.193333 166.66 118.23 168.033333 119.27 169.4 121.043745 171.666922 122.569142 174.117614 123.82 176.71 124.99 179.26 126.22 181.77 127.39 184.31 127.949388 185.41796 128.42084 186.568167 128.8 187.75 129.58 190.52 130.24 193.32 130.93 196.11 131.47 198.28 131.93 200.47 132.54 202.63 132.87 203.88 133.37 204.19 134.65 204.04 135.36 203.96 136.05 203.75 136.76 203.64 137.490615 203.423268 138.261226 203.826289 138.5 204.55 138.772991 205.252787 138.481902 206.049001 137.82 206.41 137.294301 206.693989 136.737181 206.915495 136.16 207.07 134.16 207.65 134.09 207.64 134.92 209.58 137.92 216.58 140.92 223.73 144.57 230.48 146.94 234.79 149.11 239.2 151.39 243.56 152.45 245.56 153.54 247.56 154.62 249.56 156.244068 252.551186 157.609053 255.67593 158.7 258.9 161.041431 266.084783 162.987678 273.392389 164.53 280.79 165.09 283.45 165.33 283.63 168 283.66zM114 151.73L114.23 152C114.57039 151.947982 114.905177 151.864286 115.23 151.75 117.53 150.75 119.87 149.75 122.09 148.6 123.91 147.6 125.6 146.39 127.33 145.25 129.06 144.11 130 144.25 131.12 145.97 131.7 146.84 132.22 147.74 132.81 148.59 133.4 149.44 133.89 149.59 134.74 148.75 135.697818 147.905628 136.593476 146.99326 137.42 146.02 138.154135 145.121203 138.735244 144.107641 139.14 143.02 139.573849 142.088804 139.5215 141.003716 139.000026 140.118608 138.478552 139.2335 137.554789 138.661818 136.53 138.59 134.872075 138.232986 133.150162 138.30875 131.53 138.81 127.423482 140.290907 123.58633 142.432416 120.17 145.15 118.351743 146.716511 116.644313 148.407234 115.06 150.21 114.665874 150.691533 114.305037 151.199377 113.98 151.73L114 151.73zM68.98 30.73C68.98 31.73 68.57 32.31 67.88 32.48 67.1961781 32.6702298 66.4746198 32.3410979 66.17 31.7 65.67 30.7 65.26 29.7 64.8 28.64 63.69 26.16 62.57 23.64 61.47 21.21 61.2533279 20.738628 61.098705 20.2411455 61.01 19.73 60.8630159 18.9939838 61.2941078 18.2654385 62.01 18.04 62.6828435 17.8125435 63.4198373 18.1210525 63.73 18.76 64.14 19.49 64.47 20.27 64.81 21.04 66.0633333 23.84 67.3066667 26.65 68.54 29.47 68.7134153 29.880176 68.8603828 30.3010374 68.98 30.73z"/>
  </g>
</svg>
